<?xml version="1.0" encoding="UTF-8" standalone="no"?>
<!DOCTYPE svg PUBLIC "-//W3C//DTD SVG 1.1//EN" "http://www.w3.org/Graphics/SVG/1.1/DTD/svg11.dtd">
<svg xmlns="http://www.w3.org/2000/svg" version="1.1" viewBox="0.00 0.00 1008.00 1050.00">
<g stroke-width="2.00" fill="none" stroke-linecap="butt">
<path stroke="#808080" vector-effect="non-scaling-stroke" d="
  M 937.00 496.09
  C 946.79 496.47 951.87 486.70 949.72 478.25
  C 945.06 459.98 935.89 440.63 923.72 424.97
  Q 917.04 416.38 914.59 413.68
  Q 911.63 410.41 903.03 401.71
  C 894.68 393.25 884.06 385.12 876.06 378.64
  A 1.09 1.08 34.1 0 1 875.79 377.26
  C 876.98 375.14 879.27 372.98 880.77 371.58
  Q 882.25 370.21 884.02 367.28
  Q 884.33 366.78 891.18 357.44
  Q 896.78 349.80 902.06 340.09
  Q 923.08 301.45 929.85 259.45
  Q 935.39 225.04 933.97 191.25
  Q 932.42 154.10 924.36 115.53
  C 921.66 102.60 917.98 90.67 914.05 75.70
  Q 912.37 69.30 910.83 66.85
  Q 904.46 56.62 892.63 60.16
  Q 861.88 69.38 827.60 84.59
  Q 800.14 96.78 776.41 111.18
  Q 740.58 132.94 709.29 163.06
  Q 686.58 184.93 670.21 210.20
  Q 664.72 218.68 661.57 224.56
  A 0.96 0.96 0.0 0 1 660.66 225.07
  C 649.79 224.54 640.85 223.77 631.45 223.92
  Q 604.53 224.37 578.49 228.47
  Q 555.22 232.14 528.49 238.76
  Q 485.62 249.36 441.70 268.45
  C 418.18 278.68 397.39 291.21 376.23 306.22
  C 371.21 309.78 366.33 314.39 361.11 318.21
  A 0.67 0.66 -42.0 0 1 360.27 318.17
  C 351.28 310.26 342.28 304.73 329.67 297.87
  Q 303.59 283.68 278.84 274.97
  Q 254.02 266.23 230.77 261.30
  Q 179.34 250.37 126.26 251.24
  Q 113.16 251.46 94.98 252.42
  Q 85.98 252.89 83.63 253.73
  C 78.49 255.57 74.25 260.24 74.22 266.00
  Q 74.19 272.52 74.43 276.25
  C 75.90 298.99 79.53 320.95 83.72 343.71
  C 86.40 358.30 90.42 373.97 94.58 386.70
  Q 98.76 399.52 106.48 419.33
  Q 108.81 425.32 117.76 443.64
  Q 121.92 452.15 127.00 460.37
  Q 135.97 474.87 137.17 476.60
  Q 150.25 495.61 165.47 511.62
  C 171.43 517.89 174.63 520.49 181.03 526.44
  C 188.49 533.38 196.58 539.16 204.08 544.44
  A 0.51 0.50 31.6 0 1 204.24 545.10
  C 193.52 564.97 185.24 585.26 180.46 607.48
  Q 171.50 649.12 183.06 690.41
  C 185.05 697.51 188.27 703.37 196.04 704.88
  Q 203.09 706.25 208.68 700.07
  A 0.81 0.80 53.4 0 1 210.00 700.27
  C 211.01 702.36 211.06 705.18 211.83 707.81
  Q 216.23 722.91 220.06 731.93
  C 222.95 738.73 227.80 748.89 232.22 756.30
  C 259.65 802.34 302.57 836.13 351.18 857.54
  C 374.61 867.86 398.69 876.52 422.26 879.21
  Q 448.28 882.18 463.47 861.49
  C 471.48 850.58 472.83 836.29 468.63 823.44
  Q 467.44 819.82 462.76 806.75
  Q 460.82 801.33 460.40 798.52
  Q 458.11 783.09 471.03 775.80
  Q 477.69 772.04 485.54 770.02
  Q 500.48 766.16 509.51 764.80
  C 530.15 761.70 542.68 759.52 558.97 757.61
  C 584.42 754.64 610.62 751.97 637.31 749.73
  Q 661.57 747.70 685.37 743.95
  Q 711.14 739.88 732.74 734.00
  C 769.77 723.93 806.18 709.44 838.26 690.26
  Q 867.99 672.48 893.00 647.56
  C 900.35 640.23 907.31 631.33 913.89 622.43
  Q 932.96 596.63 940.11 565.24
  Q 948.06 530.28 936.47 496.80
  A 0.54 0.54 0.0 0 1 937.00 496.09"
/>
<path stroke="#808080" vector-effect="non-scaling-stroke" d="
  M 883.87 698.89
  C 863.13 708.94 860.86 730.84 870.06 749.83
  C 879.27 768.82 897.86 780.60 918.60 770.55
  C 939.35 760.50 941.62 738.60 932.41 719.61
  C 923.21 700.62 904.62 688.84 883.87 698.89"
/>
<path stroke="#808080" vector-effect="non-scaling-stroke" d="
  M 876.85 782.89
  C 879.07 772.95 866.21 767.94 862.93 778.14
  C 861.07 783.93 857.67 788.77 851.73 790.55
  C 840.76 793.83 832.80 786.18 827.94 777.10
  C 823.01 767.88 819.68 753.27 829.93 745.98
  Q 836.93 741.01 844.54 743.63
  C 849.08 745.19 853.02 745.75 855.30 741.59
  Q 858.25 736.23 853.89 731.61
  C 849.32 726.76 840.01 726.89 833.99 728.27
  Q 825.96 730.11 819.39 735.45
  Q 805.11 747.05 807.41 766.52
  C 810.08 789.06 828.65 813.18 854.25 805.33
  C 865.09 802.00 874.36 794.08 876.85 782.89"
/>
<path stroke="#808080" vector-effect="non-scaling-stroke" d="
  M 785.31 765.19
  C 786.75 769.12 784.68 773.26 782.83 777.01
  C 781.25 780.20 785.94 782.84 788.48 782.20
  A 2.09 2.01 -71.7 0 0 789.37 781.73
  C 796.50 775.32 797.01 762.31 794.13 754.15
  C 792.52 749.59 788.48 745.74 783.40 746.32
  C 771.44 747.67 771.90 764.48 784.55 764.66
  A 0.81 0.80 -9.7 0 1 785.31 765.19"
/>
<path stroke="#808080" vector-effect="non-scaling-stroke" d="
  M 747.31 825.80
  L 772.08 818.74
  A 1.34 1.33 65.3 0 1 773.55 819.29
  Q 778.29 826.49 779.65 828.58
  C 786.10 838.46 800.90 829.58 794.10 820.13
  Q 780.10 800.64 756.53 767.51
  Q 752.69 762.11 746.36 762.90
  Q 740.21 763.68 737.22 767.96
  Q 735.62 770.25 735.08 777.38
  Q 731.61 822.65 730.34 839.27
  C 729.90 845.13 734.85 848.34 740.35 846.75
  C 745.26 845.32 746.39 841.22 746.46 836.21
  Q 746.58 828.01 746.80 826.39
  A 0.73 0.72 86.3 0 1 747.31 825.80"
/>
<path stroke="#808080" vector-effect="non-scaling-stroke" d="
  M 674.78 813.08
  Q 672.41 799.78 670.91 791.59
  C 670.03 786.81 668.92 781.73 662.72 782.17
  Q 656.87 782.60 655.00 786.95
  Q 654.18 788.85 655.42 796.18
  Q 662.08 835.67 664.30 848.54
  C 665.46 855.26 666.32 861.18 673.98 860.27
  Q 682.59 859.26 681.20 850.29
  Q 680.46 845.55 678.63 836.01
  A 4.23 4.20 54.8 0 1 679.12 833.12
  L 683.88 824.87
  A 0.63 0.63 0.0 0 1 684.86 824.74
  Q 688.28 828.13 694.55 835.14
  Q 700.90 842.23 708.13 849.53
  C 714.96 856.42 727.86 850.58 722.34 840.47
  A 3.30 3.22 -82.2 0 0 721.83 839.78
  L 693.78 811.32
  A 0.92 0.91 39.1 0 1 693.66 810.19
  Q 704.74 792.77 706.01 790.76
  C 709.06 785.93 711.93 780.54 706.84 776.26
  C 703.10 773.11 697.97 774.81 695.53 778.80
  Q 681.26 802.11 675.17 813.15
  A 0.21 0.21 0.0 0 1 674.78 813.08"
/>
<path stroke="#808080" vector-effect="non-scaling-stroke" d="
  M 612.94 787.73
  C 589.85 788.91 579.21 808.24 580.29 829.38
  C 581.37 850.51 593.94 868.66 617.02 867.47
  C 640.11 866.29 650.75 846.96 649.67 825.82
  C 648.59 804.69 636.02 786.54 612.94 787.73"
/>
<path stroke="#808080" vector-effect="non-scaling-stroke" d="
  M 912.79 799.87
  C 916.72 804.04 919.66 795.78 921.01 792.54
  A 3.06 3.05 18.8 0 0 918.97 788.41
  L 918.86 788.38
  A 3.73 3.73 0.0 0 0 914.31 791.12
  L 912.48 798.71
  A 1.27 1.25 30.4 0 0 912.79 799.87"
/>
<path stroke="#808080" vector-effect="non-scaling-stroke" d="
  M 553.88 821.62
  Q 553.27 843.10 553.22 862.99
  Q 553.20 869.05 558.30 870.27
  Q 565.34 871.95 568.08 867.44
  Q 569.35 865.36 569.39 856.79
  Q 569.59 810.67 569.66 801.02
  C 569.70 795.46 566.80 792.38 561.38 791.71
  Q 553.77 790.76 549.96 798.18
  C 541.52 814.63 535.76 824.88 532.37 833.48
  A 0.33 0.33 0.0 0 1 531.77 833.50
  Q 525.99 821.32 514.86 798.10
  Q 510.68 789.37 500.89 791.47
  C 495.96 792.53 494.88 796.71 494.74 801.72
  Q 493.25 853.72 493.09 859.02
  Q 492.94 864.09 493.80 865.84
  C 496.36 871.01 504.83 871.27 507.94 867.04
  Q 509.57 864.82 509.41 857.71
  Q 509.36 855.18 510.00 821.71
  A 0.21 0.21 0.0 0 1 510.37 821.58
  Q 510.64 821.91 510.85 822.39
  Q 518.71 840.05 524.37 850.88
  Q 526.32 854.61 530.02 854.84
  C 535.61 855.18 537.50 853.30 539.84 848.60
  Q 540.38 847.53 553.54 821.53
  A 0.18 0.18 0.0 0 1 553.88 821.62"
/>
<path stroke="#808080" vector-effect="non-scaling-stroke" d="
  M 932.04 831.95
  A 0.76 0.76 0.0 0 1 931.01 831.67
  L 927.27 825.19
  A 0.83 0.83 0.0 0 1 927.57 824.06
  L 936.61 818.85
  A 3.43 3.43 0.0 0 0 937.95 814.32
  L 937.77 813.97
  A 3.24 3.24 0.0 0 0 933.26 812.63
  L 924.22 817.85
  A 0.83 0.83 0.0 0 1 923.09 817.54
  L 919.59 811.49
  A 0.78 0.77 60.3 0 1 919.87 810.44
  L 931.05 804.04
  A 3.43 3.43 0.0 0 0 932.32 799.34
  L 932.21 799.16
  A 3.69 3.68 59.9 0 0 927.10 797.80
  Q 918.01 803.26 913.62 805.72
  C 910.22 807.62 908.96 808.83 911.02 812.53
  Q 912.66 815.50 925.29 838.22
  C 927.61 842.40 930.04 841.63 933.56 839.52
  Q 937.31 837.26 947.01 831.80
  A 3.70 3.69 -28.7 0 0 948.46 826.85
  L 948.36 826.64
  A 3.31 3.31 0.0 0 0 943.74 825.23
  L 932.04 831.95"
/>
<path stroke="#808080" vector-effect="non-scaling-stroke" d="
  M 893.72 825.24
  A 0.41 0.40 61.8 0 1 893.88 824.70
  L 905.64 818.34
  A 3.43 3.43 0.0 0 0 906.93 813.53
  L 906.91 813.49
  A 3.72 3.72 0.0 0 0 901.97 812.10
  Q 896.43 815.04 888.40 819.41
  Q 885.47 821.01 884.87 821.79
  A 3.23 3.23 0.0 0 0 884.56 825.20
  L 899.26 854.19
  A 3.79 3.79 0.0 0 0 904.35 855.86
  L 904.69 855.68
  A 3.93 3.92 63.1 0 0 906.41 850.41
  L 901.18 840.09
  A 0.61 0.60 63.4 0 1 901.45 839.27
  L 910.79 834.53
  A 3.60 3.59 65.6 0 0 912.50 829.97
  L 912.34 829.58
  A 3.16 3.15 -24.3 0 0 907.98 827.94
  L 897.83 833.08
  A 0.13 0.13 0.0 0 1 897.66 833.03
  L 893.72 825.24"
/>
<path stroke="#808080" vector-effect="non-scaling-stroke" d="
  M 876.83 859.05
  Q 882.07 856.65 882.55 856.44
  A 0.84 0.84 0.0 0 1 883.50 856.64
  L 887.80 861.21
  A 4.28 4.28 0.0 0 0 893.53 861.66
  L 893.79 861.47
  A 3.69 3.68 -41.7 0 0 894.12 856.01
  Q 882.05 843.78 870.90 832.33
  Q 867.65 828.98 863.83 830.74
  Q 860.02 832.48 860.43 837.13
  Q 861.84 853.05 863.24 870.17
  A 3.69 3.68 -7.6 0 0 867.59 873.49
  L 867.92 873.42
  A 4.28 4.28 0.0 0 0 871.30 868.78
  L 870.64 862.54
  A 0.84 0.84 0.0 0 1 871.11 861.69
  Q 871.58 861.46 876.83 859.05"
/>
<path stroke="#808080" vector-effect="non-scaling-stroke" d="
  M 858.89 873.05
  C 861.49 867.70 854.89 863.04 852.24 869.08
  C 848.41 877.81 839.02 876.11 834.93 868.81
  C 831.46 862.61 829.23 850.57 839.93 849.71
  C 842.07 849.54 844.02 850.57 846.07 850.99
  A 2.72 2.72 0.0 0 0 848.84 849.90
  C 850.36 847.76 850.09 844.63 847.48 843.33
  C 842.85 841.03 837.16 841.78 832.63 844.18
  C 814.64 853.73 827.17 888.45 848.05 882.06
  Q 855.64 879.75 858.89 873.05"
/>
<path stroke="#808080" vector-effect="non-scaling-stroke" d="
  M 799.07 891.44
  L 789.98 864.63
  A 3.44 3.44 0.0 0 0 785.61 862.48
  L 784.97 862.69
  A 3.99 3.98 -18.7 0 0 782.47 867.73
  Q 792.32 897.07 792.84 898.44
  Q 793.94 901.31 796.97 900.43
  Q 800.61 899.38 814.46 894.49
  A 3.58 3.58 0.0 0 0 816.67 889.96
  L 816.50 889.45
  A 3.14 3.14 0.0 0 0 812.52 887.49
  L 799.80 891.80
  A 0.58 0.58 0.0 0 1 799.07 891.44"
/>
<path stroke="#808080" vector-effect="non-scaling-stroke" d="
  M 770.16 901.41
  A 0.76 0.76 0.0 0 1 769.22 900.90
  L 767.03 893.74
  A 0.84 0.83 -17.3 0 1 767.57 892.70
  L 777.57 889.65
  A 3.44 3.44 0.0 0 0 779.90 885.53
  L 779.80 885.15
  A 3.25 3.25 0.0 0 0 775.70 882.83
  L 765.70 885.88
  A 0.83 0.83 0.0 0 1 764.67 885.33
  L 762.62 878.63
  A 0.78 0.77 73.3 0 1 763.13 877.67
  L 775.48 873.94
  A 3.44 3.44 0.0 0 0 777.78 869.64
  L 777.71 869.44
  A 3.70 3.69 72.9 0 0 773.03 866.96
  Q 762.93 870.24 758.09 871.66
  C 754.34 872.74 752.84 873.64 754.02 877.72
  Q 754.95 880.99 762.16 906.01
  C 763.48 910.61 766.02 910.41 769.94 909.14
  Q 774.11 907.78 784.80 904.64
  A 3.70 3.70 0.0 0 0 787.33 900.13
  L 787.28 899.90
  A 3.32 3.31 74.9 0 0 783.09 897.49
  L 770.16 901.41"
/>
<path stroke="#808080" vector-effect="non-scaling-stroke" d="
  M 718.39 886.05
  L 725.75 916.49
  A 3.89 3.89 0.0 0 0 730.45 919.36
  L 740.19 917.00
  A 17.59 17.59 0.0 0 0 753.15 895.77
  L 752.23 891.96
  A 17.59 17.59 0.0 0 0 730.99 879.00
  L 721.26 881.36
  A 3.89 3.89 0.0 0 0 718.39 886.05"
/>
<path stroke="#808080" vector-effect="non-scaling-stroke" d="
  M 690.06 918.78
  Q 695.68 917.76 696.19 917.68
  A 0.84 0.83 -18.8 0 1 697.06 918.10
  L 700.06 923.54
  A 4.23 4.23 0.0 0 0 705.44 925.38
  L 705.74 925.26
  A 3.65 3.64 -27.3 0 0 707.39 920.11
  Q 698.82 905.41 690.94 891.70
  Q 688.64 887.69 684.55 888.44
  Q 680.46 889.18 679.72 893.73
  Q 677.16 909.34 674.31 926.11
  A 3.65 3.64 6.7 0 0 677.67 930.36
  L 677.99 930.37
  A 4.23 4.23 0.0 0 0 682.38 926.75
  L 683.28 920.61
  A 0.84 0.83 -1.8 0 1 683.94 919.90
  Q 684.44 919.80 690.06 918.78"
/>
<path stroke="#808080" vector-effect="non-scaling-stroke" d="
  M 663.80 902.85
  C 667.41 901.33 665.88 896.92 663.36 895.38
  C 654.27 889.82 637.81 895.53 641.45 908.73
  C 643.21 915.10 650.41 916.77 656.26 917.44
  Q 657.92 917.63 659.23 918.28
  Q 661.41 919.38 661.67 919.96
  Q 663.47 923.95 660.10 925.73
  C 657.23 927.25 653.54 927.03 650.53 925.37
  C 648.64 924.32 647.02 923.03 645.18 923.93
  C 643.63 924.68 642.78 926.21 643.11 927.96
  C 644.07 932.92 651.48 934.53 655.74 934.19
  Q 660.04 933.84 663.43 932.42
  C 672.47 928.63 672.99 916.40 664.56 911.61
  C 661.51 909.88 656.22 909.61 652.79 908.73
  C 650.74 908.21 648.47 906.95 648.92 904.45
  C 649.43 901.52 652.68 900.60 655.28 900.61
  C 658.04 900.62 660.53 902.86 662.76 903.02
  A 2.26 2.25 -54.2 0 0 663.80 902.85"
/>
<path stroke="#808080" vector-effect="non-scaling-stroke" d="
  M 623.02 928.45
  Q 628.72 927.89 629.24 927.85
  A 0.84 0.84 0.0 0 1 630.07 928.34
  L 632.63 934.02
  A 4.25 4.25 0.0 0 0 637.86 936.30
  L 638.17 936.20
  A 3.66 3.65 -22.7 0 0 640.24 931.18
  Q 632.86 915.79 626.09 901.44
  Q 624.12 897.25 619.97 897.66
  Q 615.82 898.07 614.71 902.56
  Q 610.89 917.97 606.67 934.50
  A 3.66 3.65 11.4 0 0 609.68 939.02
  L 610.01 939.06
  A 4.25 4.25 0.0 0 0 614.69 935.80
  L 616.09 929.73
  A 0.84 0.84 0.0 0 1 616.80 929.08
  Q 617.32 929.02 623.02 928.45"
/>
<path stroke="#808080" vector-effect="non-scaling-stroke" d="
  M 571.86 921.55
  C 572.47 930.41 576.77 938.67 586.26 940.38
  Q 594.08 941.80 600.33 937.11
  C 603.15 934.99 605.23 930.82 601.46 928.52
  A 3.00 2.98 -50.9 0 0 597.84 928.90
  Q 595.65 930.99 594.80 931.73
  A 4.65 4.59 14.6 0 1 593.29 932.60
  C 584.72 935.57 580.79 928.29 580.29 920.97
  C 579.78 913.64 582.68 905.90 591.57 907.66
  A 4.65 4.59 -22.5 0 1 593.19 908.32
  Q 594.13 908.94 596.59 910.71
  A 3.00 2.98 43.0 0 0 600.23 910.59
  C 603.65 907.79 601.02 903.95 597.93 902.23
  Q 591.10 898.44 583.55 900.91
  C 574.38 903.91 571.25 912.69 571.86 921.55"
/>
<path stroke="#808080" vector-effect="non-scaling-stroke" d="
  M 502.09 932.29
  L 503.60 904.23
  A 3.42 3.42 0.0 0 0 500.36 900.64
  L 499.70 900.60
  A 3.96 3.95 3.1 0 0 495.53 904.32
  Q 493.80 934.99 493.77 936.44
  Q 493.73 939.49 496.85 939.80
  Q 500.59 940.17 515.15 940.77
  A 3.55 3.55 0.0 0 0 518.86 937.41
  L 518.89 936.88
  A 3.11 3.11 0.0 0 0 515.94 933.60
  L 502.63 932.89
  A 0.58 0.57 -87.1 0 1 502.09 932.29"
/>
<path stroke="#808080" vector-effect="non-scaling-stroke" d="
  M 538.73 932.35
  Q 544.46 932.38 544.97 932.39
  A 0.84 0.84 0.0 0 1 545.75 932.97
  L 547.71 938.88
  A 4.24 4.24 0.0 0 0 552.67 941.68
  L 552.99 941.61
  A 3.66 3.65 -16.8 0 0 555.56 936.84
  Q 549.81 920.78 544.56 905.82
  Q 543.03 901.46 538.86 901.44
  Q 534.70 901.42 533.13 905.77
  Q 527.75 920.69 521.86 936.69
  A 3.66 3.65 17.3 0 0 524.39 941.49
  L 524.71 941.56
  A 4.24 4.24 0.0 0 0 529.70 938.80
  L 531.71 932.91
  A 0.84 0.84 0.0 0 1 532.49 932.34
  Q 533.00 932.33 538.73 932.35"
/>
<path stroke="#808080" vector-effect="non-scaling-stroke" d="
  M 523.93 598.93
  Q 525.18 600.78 525.83 601.43
  Q 540.72 616.27 557.37 626.89
  Q 572.00 636.21 589.75 642.11
  Q 605.21 647.25 624.86 649.08
  Q 651.31 651.55 680.06 647.30
  Q 691.36 645.63 697.03 642.95
  Q 704.77 639.29 708.56 635.03
  Q 714.91 627.90 716.96 624.20
  Q 721.43 616.14 722.73 607.36
  A 1.14 1.14 0.0 0 0 721.89 606.08
  Q 720.84 605.80 719.50 605.77
  Q 705.42 605.50 693.81 601.51
  Q 684.76 598.40 679.71 594.91
  C 673.92 590.90 666.51 581.83 668.07 573.96
  A 0.57 0.57 0.0 0 0 667.53 573.29
  Q 660.53 573.13 652.97 571.50
  C 643.43 569.44 635.56 567.57 626.54 563.72
  Q 613.27 558.06 601.68 551.29
  Q 589.35 544.09 573.05 532.18
  Q 552.22 516.97 527.71 494.16
  C 509.68 477.38 491.20 462.27 470.51 449.77
  C 456.25 441.15 440.17 434.74 424.89 432.16
  Q 400.11 427.99 376.67 436.58
  Q 360.53 442.50 347.25 452.00
  Q 329.18 464.93 314.53 483.43
  C 307.54 492.26 301.22 503.45 296.68 512.18
  Q 288.54 527.86 282.23 548.96
  C 280.85 553.55 277.63 558.47 272.30 554.99
  Q 270.25 553.65 269.97 551.79
  Q 268.93 544.82 269.14 536.62
  Q 269.63 517.45 274.80 498.51
  C 276.05 493.93 277.70 490.16 278.66 486.34
  Q 279.02 484.92 279.78 484.03
  Q 281.12 482.45 281.61 482.24
  A 2.32 2.28 77.7 0 1 284.76 484.30
  Q 284.86 486.59 284.42 489.70
  C 283.08 499.00 281.30 507.75 281.42 516.58
  A 0.33 0.32 -29.0 0 0 282.02 516.75
  Q 283.20 514.90 284.38 512.14
  C 287.28 505.38 289.95 500.82 293.75 494.36
  Q 307.76 470.51 328.85 452.10
  Q 338.57 443.61 352.90 435.17
  Q 361.76 429.95 370.97 426.70
  Q 382.71 422.55 390.14 421.20
  Q 412.53 417.14 435.93 423.06
  C 443.86 425.07 452.30 427.84 460.35 431.67
  Q 479.96 441.02 497.00 453.78
  Q 513.24 465.94 531.77 482.74
  Q 547.88 497.36 565.27 511.78
  C 583.72 527.08 600.07 538.32 619.81 548.32
  Q 632.40 554.71 643.75 557.83
  Q 656.55 561.34 669.14 562.39
  A 1.86 1.85 21.2 0 0 670.78 561.67
  Q 674.41 556.99 676.99 553.93
  Q 679.64 550.79 684.31 547.43
  C 692.85 541.28 701.69 537.70 711.26 534.45
  Q 714.82 533.24 721.69 532.08
  A 0.74 0.74 0.0 0 0 721.82 530.65
  Q 717.23 528.92 707.02 523.38
  C 693.97 516.31 681.41 506.36 671.34 496.44
  C 661.32 486.59 651.80 475.18 646.45 462.55
  C 637.81 442.15 636.14 420.47 644.13 399.48
  Q 647.48 390.66 648.35 389.01
  C 657.75 371.08 672.95 355.89 691.54 347.20
  Q 700.10 343.21 705.39 341.42
  C 731.25 332.67 760.57 334.25 786.87 343.00
  Q 801.38 347.83 803.72 348.87
  Q 820.87 356.52 838.01 368.80
  Q 838.82 369.39 839.98 369.66
  A 0.47 0.47 0.0 0 0 840.51 369.00
  C 834.56 356.86 827.58 347.19 817.55 332.45
  C 816.31 330.63 812.89 325.54 814.68 323.46
  C 816.72 321.10 818.38 323.21 820.21 324.82
  Q 826.06 329.97 832.00 336.90
  Q 842.92 349.61 851.34 362.19
  A 0.49 0.48 50.8 0 0 852.09 362.27
  Q 855.68 358.81 858.71 354.97
  Q 872.15 337.98 881.95 318.77
  Q 893.60 295.94 900.08 267.42
  Q 908.90 228.55 906.18 188.02
  Q 904.11 157.14 897.78 124.63
  C 895.45 112.66 892.46 102.84 889.53 91.41
  A 1.23 1.23 0.0 0 0 887.92 90.55
  C 866.71 98.18 845.19 106.40 824.65 116.58
  C 807.51 125.08 792.27 133.62 775.61 144.85
  C 763.59 152.97 755.61 159.15 744.36 168.71
  C 728.01 182.59 712.98 197.90 700.69 214.86
  Q 692.05 226.80 685.24 238.73
  Q 683.82 241.20 683.33 242.76
  A 0.51 0.50 17.2 0 0 683.67 243.39
  Q 700.67 248.65 706.38 250.65
  Q 714.82 253.61 724.54 258.24
  Q 727.26 259.54 729.24 261.53
  A 2.45 2.12 44.2 0 1 729.51 264.68
  C 727.68 266.68 722.42 265.15 719.85 264.47
  Q 701.28 259.54 679.51 255.73
  C 665.90 253.35 649.36 252.63 637.25 252.44
  Q 611.72 252.04 584.50 256.00
  Q 569.15 258.23 537.36 265.68
  Q 522.56 269.15 504.80 275.12
  Q 477.18 284.41 472.77 286.26
  Q 448.65 296.39 444.13 298.62
  Q 411.22 314.86 388.70 332.22
  Q 367.35 348.68 348.73 368.72
  Q 333.30 385.31 328.91 390.40
  Q 327.02 392.60 324.35 392.47
  A 1.38 1.38 0.0 0 1 323.03 390.94
  Q 323.29 388.39 324.58 386.08
  Q 330.10 376.20 335.03 369.50
  Q 344.22 357.04 352.54 347.41
  A 0.57 0.57 0.0 0 0 352.48 346.61
  Q 340.00 335.88 325.59 327.42
  Q 298.60 311.59 268.22 300.56
  Q 253.12 295.07 226.72 288.82
  Q 217.84 286.72 204.66 284.77
  Q 184.76 281.82 182.47 281.57
  Q 147.56 277.86 104.03 279.84
  A 0.69 0.69 0.0 0 0 103.37 280.56
  Q 103.76 289.00 105.26 300.79
  Q 108.11 323.20 113.53 348.63
  C 117.84 368.85 124.21 387.79 131.44 406.11
  Q 145.09 440.68 167.66 471.10
  C 183.94 493.06 204.66 512.46 228.21 526.59
  A 1.84 1.83 35.9 0 0 230.55 526.22
  Q 236.93 518.90 243.65 512.79
  C 245.44 511.16 246.23 510.91 248.54 511.54
  A 1.27 1.27 0.0 0 1 249.44 513.10
  Q 248.77 515.56 248.17 516.94
  Q 239.61 536.39 228.70 556.91
  Q 222.65 568.29 217.59 580.30
  Q 204.71 610.86 204.14 643.73
  Q 203.99 652.54 205.39 660.44
  A 0.93 0.93 0.0 0 0 207.10 660.75
  Q 216.22 645.26 227.63 632.64
  Q 230.46 629.52 233.59 627.70
  C 235.91 626.36 237.52 629.20 237.09 631.21
  Q 229.96 664.22 237.18 695.05
  Q 241.43 713.20 247.72 726.79
  Q 261.09 755.67 284.55 779.69
  C 304.84 800.45 330.75 818.25 358.64 830.72
  C 370.88 836.19 382.28 841.05 394.04 844.58
  A 0.21 0.21 0.0 0 0 394.27 844.27
  Q 393.54 843.12 392.36 842.37
  Q 376.67 832.43 364.96 823.79
  Q 343.06 807.64 323.30 786.72
  Q 310.25 772.89 300.45 756.30
  C 292.81 743.37 282.97 719.31 294.45 705.98
  Q 295.84 704.37 300.65 702.25
  A 0.78 0.77 73.8 0 0 301.10 701.42
  Q 299.58 691.66 299.15 688.03
  Q 297.33 672.57 298.71 659.48
  C 301.12 636.56 312.53 615.59 330.65 600.62
  Q 354.23 581.15 386.76 579.37
  Q 421.21 577.48 453.46 591.40
  Q 482.40 603.88 487.30 605.95
  Q 490.15 607.16 493.54 608.27
  A 1.09 1.08 -71.8 0 0 494.91 607.57
  Q 496.31 603.33 499.25 598.79
  C 505.44 589.26 516.39 585.97 527.76 585.73
  A 3.02 3.01 52.7 0 1 528.70 585.86
  Q 532.27 586.96 532.73 590.79
  C 533.30 595.55 528.44 597.05 524.16 598.29
  A 0.42 0.42 0.0 0 0 523.93 598.93"
/>
<path stroke="#808080" vector-effect="non-scaling-stroke" d="
  M 832.47 661.48
  A 0.12 0.11 3.9 0 0 832.62 661.65
  Q 856.18 646.49 875.25 626.76
  Q 898.38 602.83 909.47 572.71
  Q 912.24 565.20 914.04 554.00
  C 917.19 534.41 915.42 512.93 906.62 495.57
  Q 898.77 480.10 885.08 468.91
  C 883.07 467.26 881.40 465.35 883.76 463.27
  A 1.57 1.57 0.0 0 1 884.74 462.88
  Q 896.29 462.37 907.16 465.11
  Q 910.61 465.99 915.20 467.10
  A 0.78 0.78 0.0 0 0 916.10 466.04
  Q 913.53 459.89 908.97 452.54
  Q 898.34 435.39 883.37 421.21
  Q 877.58 415.72 861.46 402.58
  Q 849.08 392.49 839.29 384.23
  Q 833.19 379.09 825.87 374.24
  Q 815.59 367.44 811.68 365.37
  Q 796.15 357.13 776.05 351.47
  C 754.87 345.51 732.15 345.06 711.00 351.45
  Q 680.82 360.58 663.45 386.11
  Q 648.99 407.38 650.71 434.24
  C 651.64 448.73 659.60 465.07 668.44 476.30
  Q 680.53 491.66 696.92 503.07
  Q 715.88 516.28 734.42 524.03
  C 738.09 525.56 743.13 527.55 747.49 527.00
  Q 754.38 526.15 760.52 523.01
  C 779.90 513.08 797.92 499.89 820.49 498.30
  C 845.82 496.51 866.82 511.38 876.01 534.66
  Q 880.12 545.07 881.00 552.26
  Q 884.24 578.51 873.70 603.22
  Q 867.08 618.72 860.02 628.59
  C 854.35 636.52 849.34 643.47 843.76 649.26
  Q 836.84 656.43 832.47 661.48"
/>
<path stroke="#808080" vector-effect="non-scaling-stroke" d="
  M 508.32 610.46
  Q 506.93 613.40 506.00 616.40
  Q 504.29 621.89 499.23 622.07
  A 2.33 2.27 -33.8 0 1 498.31 621.90
  C 489.39 618.20 480.00 615.19 471.36 611.17
  C 460.13 605.97 452.02 602.61 440.47 598.19
  C 422.00 591.12 400.36 588.33 381.45 590.60
  Q 351.96 594.16 330.95 615.42
  C 322.29 624.18 315.10 637.16 311.76 648.53
  C 307.09 664.44 309.21 683.21 311.78 700.99
  C 312.80 708.02 307.92 709.65 302.87 712.61
  C 297.29 715.89 301.25 730.14 302.83 734.70
  Q 307.34 747.77 315.78 759.72
  Q 326.23 774.50 338.95 786.79
  C 361.84 808.90 387.60 827.27 415.61 843.39
  Q 421.51 846.79 426.57 849.09
  A 6.67 6.41 60.8 0 0 428.25 849.60
  Q 439.97 851.51 442.34 839.74
  C 443.25 835.20 440.36 828.01 438.60 824.06
  C 434.78 815.47 432.22 804.77 431.64 797.00
  C 430.03 775.11 443.72 756.60 463.36 748.16
  Q 476.69 742.42 485.85 740.42
  Q 505.49 736.12 528.50 733.01
  Q 572.02 727.14 603.03 724.40
  Q 647.62 720.48 649.24 720.31
  C 681.58 716.98 712.94 711.39 743.25 701.25
  Q 752.30 698.23 764.04 692.55
  C 800.65 674.88 835.34 649.69 856.02 614.17
  C 865.35 598.15 870.30 582.56 870.80 564.48
  C 871.24 548.44 865.26 531.28 853.32 520.19
  C 838.46 506.38 818.28 506.43 800.35 514.37
  Q 788.48 519.63 776.75 526.86
  C 773.26 529.01 769.17 530.67 766.17 532.81
  A 0.70 0.69 39.4 0 0 766.29 534.01
  Q 778.17 539.33 782.73 550.73
  C 786.52 560.21 787.50 573.03 786.69 584.48
  Q 785.59 599.78 778.99 612.03
  Q 773.77 621.72 771.07 624.88
  Q 759.85 638.07 748.55 644.81
  Q 736.28 652.12 723.54 656.50
  Q 710.07 661.12 702.31 662.78
  C 667.20 670.29 629.65 671.46 594.50 663.26
  Q 585.64 661.19 580.05 658.95
  C 569.65 654.78 558.23 650.01 548.63 643.75
  Q 538.84 637.36 527.04 627.92
  C 520.30 622.54 514.55 616.45 508.91 610.37
  A 0.36 0.36 0.0 0 0 508.32 610.46"
/>
<path stroke="#808080" vector-effect="non-scaling-stroke" d="
  M 756.8102 550.9587
  A 29.25 10.35 -12.1 0 0 726.0404 546.9699
  A 29.25 10.35 -12.1 0 0 699.6098 563.2213
  A 29.25 10.35 -12.1 0 0 730.3796 567.2101
  A 29.25 10.35 -12.1 0 0 756.8102 550.9587"
/>
<path stroke="#808080" vector-effect="non-scaling-stroke" d="
  M 767.82 585.82
  Q 764.80 588.32 762.54 590.62
  Q 758.64 594.59 757.46 595.39
  C 752.22 598.91 747.66 601.20 741.29 603.80
  A 0.75 0.74 -9.7 0 0 740.83 604.44
  Q 740.24 614.09 737.36 622.75
  C 736.50 625.34 735.11 627.41 733.43 630.75
  A 0.27 0.27 0.0 0 0 733.74 631.14
  C 737.34 630.27 740.66 627.63 744.73 624.81
  C 751.27 620.30 756.09 614.43 760.34 608.39
  C 764.31 602.76 767.24 593.02 768.47 586.20
  A 0.40 0.40 0.0 0 0 767.82 585.82"
/>
<path stroke="#808080" vector-effect="non-scaling-stroke" d="
  M 831.67 286.99
  C 833.56 285.64 834.77 283.78 837.07 281.22
  C 843.25 274.32 847.59 265.61 850.05 257.02
  Q 859.21 225.02 853.39 190.29
  Q 851.54 179.23 848.86 165.73
  A 0.38 0.38 0.0 0 0 848.38 165.44
  C 842.97 167.02 839.08 168.73 831.49 172.23
  Q 802.62 185.55 781.79 209.25
  Q 770.40 222.21 765.58 238.17
  A 0.54 0.54 0.0 0 1 764.85 238.51
  Q 759.93 236.34 754.43 235.58
  A 13.61 13.02 -30.8 0 1 752.26 235.08
  C 749.33 234.13 746.18 232.94 743.55 233.51
  A 1.39 1.36 10.4 0 0 742.73 234.06
  C 740.59 237.15 743.47 239.25 745.94 240.41
  Q 759.91 246.96 774.69 255.64
  Q 789.10 264.10 801.56 273.98
  Q 821.58 289.89 837.83 308.88
  Q 839.49 310.82 841.40 310.57
  C 843.91 310.24 843.89 306.62 843.05 305.21
  Q 838.38 297.31 831.56 287.59
  A 0.44 0.43 -35.0 0 1 831.67 286.99"
/>
<path stroke="#808080" vector-effect="non-scaling-stroke" d="
  M 277.78 381.71
  C 275.82 379.84 274.34 377.36 272.25 375.21
  Q 263.82 366.57 250.88 359.86
  C 225.19 346.53 195.92 341.82 167.30 343.15
  A 0.65 0.64 -11.7 0 0 166.72 344.02
  C 168.50 348.74 168.73 353.90 169.95 358.52
  Q 175.05 377.89 178.61 386.67
  Q 181.34 393.43 182.39 396.20
  C 186.13 406.06 191.73 415.41 197.29 424.30
  C 202.13 432.05 207.08 437.73 213.41 444.45
  Q 223.71 455.38 236.30 460.97
  Q 240.08 462.66 242.99 463.22
  A 0.69 0.69 0.0 0 1 243.54 464.00
  C 242.34 471.59 241.13 479.29 242.31 486.85
  A 2.13 2.11 3.2 0 0 243.86 488.57
  Q 246.47 489.26 247.88 488.22
  A 1.38 1.34 -14.0 0 0 248.42 487.35
  C 251.04 472.88 255.59 457.21 260.57 443.29
  Q 276.34 399.26 303.76 365.48
  Q 306.34 362.30 303.54 359.79
  A 2.61 2.61 0.0 0 0 300.12 359.72
  Q 288.47 369.49 278.38 381.68
  A 0.41 0.41 0.0 0 1 277.78 381.71"
/>
<path stroke="#808080" vector-effect="non-scaling-stroke" d="
  M 416.4866 472.4343
  A 39.26 38.71 -83.1 0 0 373.3404 506.7595
  A 39.26 38.71 -83.1 0 0 407.0534 550.3857
  A 39.26 38.71 -83.1 0 0 450.1996 516.0605
  A 39.26 38.71 -83.1 0 0 416.4866 472.4343"
/>
<path stroke="#808080" vector-effect="non-scaling-stroke" d="
  M 756.40 432.40
  A 39.11 39.11 0.0 0 0 717.29 393.29
  A 39.11 39.11 0.0 0 0 678.18 432.40
  A 39.11 39.11 0.0 0 0 717.29 471.51
  A 39.11 39.11 0.0 0 0 756.40 432.40"
/>
<path stroke="#808080" vector-effect="non-scaling-stroke" d="
  M 740.60 419.38
  A 15.36 15.36 0.0 0 0 725.24 404.02
  A 15.36 15.36 0.0 0 0 709.88 419.38
  A 15.36 15.36 0.0 0 0 725.24 434.74
  A 15.36 15.36 0.0 0 0 740.60 419.38"
/>
<path stroke="#808080" vector-effect="non-scaling-stroke" d="
  M 405.5122 493.1936
  A 15.47 15.30 -159.9 0 0 414.7820 512.8781
  A 15.47 15.30 -159.9 0 0 434.5678 503.8264
  A 15.47 15.30 -159.9 0 0 425.2980 484.1419
  A 15.47 15.30 -159.9 0 0 405.5122 493.1936"
/>
<path stroke="#808080" vector-effect="non-scaling-stroke" d="
  M 889.32 712.65
  C 877.26 719.16 880.23 733.40 885.50 743.17
  C 890.77 752.94 901.03 763.26 913.09 756.75
  C 925.16 750.25 922.18 736.01 916.92 726.24
  C 911.65 716.47 901.39 706.15 889.32 712.65"
/>
<path stroke="#808080" vector-effect="non-scaling-stroke" d="
  M 747.71 810.80
  A 0.34 0.34 0.0 0 0 748.14 811.15
  L 764.45 806.78
  A 0.34 0.34 0.0 0 0 764.64 806.27
  L 749.75 783.28
  A 0.34 0.34 0.0 0 0 749.12 783.45
  L 747.71 810.80"
/>
<path stroke="#808080" vector-effect="non-scaling-stroke" d="
  M 613.17 802.39
  C 599.44 803.32 596.24 817.56 596.99 828.68
  C 597.73 839.79 602.82 853.48 616.54 852.56
  C 630.27 851.63 633.47 837.39 632.72 826.27
  C 631.98 815.16 626.89 801.47 613.17 802.39"
/>
<path stroke="#808080" vector-effect="non-scaling-stroke" d="
  M 869.45 854.50
  A 0.32 0.32 0.0 0 0 869.90 854.76
  L 877.77 851.24
  A 0.32 0.32 0.0 0 0 877.87 850.73
  L 868.63 840.63
  A 0.32 0.32 0.0 0 0 868.07 840.87
  L 869.45 854.50"
/>
<path stroke="#808080" vector-effect="non-scaling-stroke" d="
  M 727.15 888.29
  L 732.73 910.50
  A 0.87 0.87 0.0 0 0 733.78 911.14
  L 737.63 910.17
  A 10.45 10.26 75.9 0 0 745.04 897.53
  L 744.13 893.91
  A 10.45 10.26 75.9 0 0 731.63 886.27
  L 727.78 887.24
  A 0.87 0.87 0.0 0 0 727.15 888.29"
/>
<path stroke="#808080" vector-effect="non-scaling-stroke" d="
  M 684.39 912.48
  A 0.32 0.32 0.0 0 0 684.76 912.84
  L 692.88 911.36
  A 0.32 0.32 0.0 0 0 693.10 910.89
  L 686.77 899.11
  A 0.32 0.32 0.0 0 0 686.17 899.22
  L 684.39 912.48"
/>
<path stroke="#808080" vector-effect="non-scaling-stroke" d="
  M 622.33 921.56
  Q 623.52 921.43 626.32 921.23
  A 0.49 0.49 0.0 0 0 626.73 920.54
  L 621.05 907.92
  A 0.18 0.10 75.4 0 0 620.95 907.81
  Q 620.91 907.80 620.86 907.81
  Q 620.82 907.81 620.78 907.83
  A 0.18 0.10 -87.6 0 0 620.71 907.96
  L 617.81 921.49
  A 0.49 0.49 0.0 0 0 618.35 922.08
  Q 621.13 921.68 622.33 921.56"
/>
<path stroke="#808080" vector-effect="non-scaling-stroke" d="
  M 534.26 925.23
  A 0.30 0.30 0.0 0 0 534.55 925.62
  L 542.99 925.62
  A 0.30 0.30 0.0 0 0 543.28 925.23
  L 539.06 912.30
  A 0.30 0.30 0.0 0 0 538.48 912.30
  L 534.26 925.23"
/>
</g>
<path fill="#ffffff" d="
  M 1008.00 0.00
  L 1008.00 1050.00
  L 0.00 1050.00
  L 0.00 0.00
  L 1008.00 0.00
  Z
  M 937.00 496.09
  C 946.79 496.47 951.87 486.70 949.72 478.25
  C 945.06 459.98 935.89 440.63 923.72 424.97
  Q 917.04 416.38 914.59 413.68
  Q 911.63 410.41 903.03 401.71
  C 894.68 393.25 884.06 385.12 876.06 378.64
  A 1.09 1.08 34.1 0 1 875.79 377.26
  C 876.98 375.14 879.27 372.98 880.77 371.58
  Q 882.25 370.21 884.02 367.28
  Q 884.33 366.78 891.18 357.44
  Q 896.78 349.80 902.06 340.09
  Q 923.08 301.45 929.85 259.45
  Q 935.39 225.04 933.97 191.25
  Q 932.42 154.10 924.36 115.53
  C 921.66 102.60 917.98 90.67 914.05 75.70
  Q 912.37 69.30 910.83 66.85
  Q 904.46 56.62 892.63 60.16
  Q 861.88 69.38 827.60 84.59
  Q 800.14 96.78 776.41 111.18
  Q 740.58 132.94 709.29 163.06
  Q 686.58 184.93 670.21 210.20
  Q 664.72 218.68 661.57 224.56
  A 0.96 0.96 0.0 0 1 660.66 225.07
  C 649.79 224.54 640.85 223.77 631.45 223.92
  Q 604.53 224.37 578.49 228.47
  Q 555.22 232.14 528.49 238.76
  Q 485.62 249.36 441.70 268.45
  C 418.18 278.68 397.39 291.21 376.23 306.22
  C 371.21 309.78 366.33 314.39 361.11 318.21
  A 0.67 0.66 -42.0 0 1 360.27 318.17
  C 351.28 310.26 342.28 304.73 329.67 297.87
  Q 303.59 283.68 278.84 274.97
  Q 254.02 266.23 230.77 261.30
  Q 179.34 250.37 126.26 251.24
  Q 113.16 251.46 94.98 252.42
  Q 85.98 252.89 83.63 253.73
  C 78.49 255.57 74.25 260.24 74.22 266.00
  Q 74.19 272.52 74.43 276.25
  C 75.90 298.99 79.53 320.95 83.72 343.71
  C 86.40 358.30 90.42 373.97 94.58 386.70
  Q 98.76 399.52 106.48 419.33
  Q 108.81 425.32 117.76 443.64
  Q 121.92 452.15 127.00 460.37
  Q 135.97 474.87 137.17 476.60
  Q 150.25 495.61 165.47 511.62
  C 171.43 517.89 174.63 520.49 181.03 526.44
  C 188.49 533.38 196.58 539.16 204.08 544.44
  A 0.51 0.50 31.6 0 1 204.24 545.10
  C 193.52 564.97 185.24 585.26 180.46 607.48
  Q 171.50 649.12 183.06 690.41
  C 185.05 697.51 188.27 703.37 196.04 704.88
  Q 203.09 706.25 208.68 700.07
  A 0.81 0.80 53.4 0 1 210.00 700.27
  C 211.01 702.36 211.06 705.18 211.83 707.81
  Q 216.23 722.91 220.06 731.93
  C 222.95 738.73 227.80 748.89 232.22 756.30
  C 259.65 802.34 302.57 836.13 351.18 857.54
  C 374.61 867.86 398.69 876.52 422.26 879.21
  Q 448.28 882.18 463.47 861.49
  C 471.48 850.58 472.83 836.29 468.63 823.44
  Q 467.44 819.82 462.76 806.75
  Q 460.82 801.33 460.40 798.52
  Q 458.11 783.09 471.03 775.80
  Q 477.69 772.04 485.54 770.02
  Q 500.48 766.16 509.51 764.80
  C 530.15 761.70 542.68 759.52 558.97 757.61
  C 584.42 754.64 610.62 751.97 637.31 749.73
  Q 661.57 747.70 685.37 743.95
  Q 711.14 739.88 732.74 734.00
  C 769.77 723.93 806.18 709.44 838.26 690.26
  Q 867.99 672.48 893.00 647.56
  C 900.35 640.23 907.31 631.33 913.89 622.43
  Q 932.96 596.63 940.11 565.24
  Q 948.06 530.28 936.47 496.80
  A 0.54 0.54 0.0 0 1 937.00 496.09
  Z
  M 883.87 698.89
  C 863.13 708.94 860.86 730.84 870.06 749.83
  C 879.27 768.82 897.86 780.60 918.60 770.55
  C 939.35 760.50 941.62 738.60 932.41 719.61
  C 923.21 700.62 904.62 688.84 883.87 698.89
  Z
  M 876.85 782.89
  C 879.07 772.95 866.21 767.94 862.93 778.14
  C 861.07 783.93 857.67 788.77 851.73 790.55
  C 840.76 793.83 832.80 786.18 827.94 777.10
  C 823.01 767.88 819.68 753.27 829.93 745.98
  Q 836.93 741.01 844.54 743.63
  C 849.08 745.19 853.02 745.75 855.30 741.59
  Q 858.25 736.23 853.89 731.61
  C 849.32 726.76 840.01 726.89 833.99 728.27
  Q 825.96 730.11 819.39 735.45
  Q 805.11 747.05 807.41 766.52
  C 810.08 789.06 828.65 813.18 854.25 805.33
  C 865.09 802.00 874.36 794.08 876.85 782.89
  Z
  M 785.31 765.19
  C 786.75 769.12 784.68 773.26 782.83 777.01
  C 781.25 780.20 785.94 782.84 788.48 782.20
  A 2.09 2.01 -71.7 0 0 789.37 781.73
  C 796.50 775.32 797.01 762.31 794.13 754.15
  C 792.52 749.59 788.48 745.74 783.40 746.32
  C 771.44 747.67 771.90 764.48 784.55 764.66
  A 0.81 0.80 -9.7 0 1 785.31 765.19
  Z
  M 747.31 825.80
  L 772.08 818.74
  A 1.34 1.33 65.3 0 1 773.55 819.29
  Q 778.29 826.49 779.65 828.58
  C 786.10 838.46 800.90 829.58 794.10 820.13
  Q 780.10 800.64 756.53 767.51
  Q 752.69 762.11 746.36 762.90
  Q 740.21 763.68 737.22 767.96
  Q 735.62 770.25 735.08 777.38
  Q 731.61 822.65 730.34 839.27
  C 729.90 845.13 734.85 848.34 740.35 846.75
  C 745.26 845.32 746.39 841.22 746.46 836.21
  Q 746.58 828.01 746.80 826.39
  A 0.73 0.72 86.3 0 1 747.31 825.80
  Z
  M 674.78 813.08
  Q 672.41 799.78 670.91 791.59
  C 670.03 786.81 668.92 781.73 662.72 782.17
  Q 656.87 782.60 655.00 786.95
  Q 654.18 788.85 655.42 796.18
  Q 662.08 835.67 664.30 848.54
  C 665.46 855.26 666.32 861.18 673.98 860.27
  Q 682.59 859.26 681.20 850.29
  Q 680.46 845.55 678.63 836.01
  A 4.23 4.20 54.8 0 1 679.12 833.12
  L 683.88 824.87
  A 0.63 0.63 0.0 0 1 684.86 824.74
  Q 688.28 828.13 694.55 835.14
  Q 700.90 842.23 708.13 849.53
  C 714.96 856.42 727.86 850.58 722.34 840.47
  A 3.30 3.22 -82.2 0 0 721.83 839.78
  L 693.78 811.32
  A 0.92 0.91 39.1 0 1 693.66 810.19
  Q 704.74 792.77 706.01 790.76
  C 709.06 785.93 711.93 780.54 706.84 776.26
  C 703.10 773.11 697.97 774.81 695.53 778.80
  Q 681.26 802.11 675.17 813.15
  A 0.21 0.21 0.0 0 1 674.78 813.08
  Z
  M 612.94 787.73
  C 589.85 788.91 579.21 808.24 580.29 829.38
  C 581.37 850.51 593.94 868.66 617.02 867.47
  C 640.11 866.29 650.75 846.96 649.67 825.82
  C 648.59 804.69 636.02 786.54 612.94 787.73
  Z
  M 912.79 799.87
  C 916.72 804.04 919.66 795.78 921.01 792.54
  A 3.06 3.05 18.8 0 0 918.97 788.41
  L 918.86 788.38
  A 3.73 3.73 0.0 0 0 914.31 791.12
  L 912.48 798.71
  A 1.27 1.25 30.4 0 0 912.79 799.87
  Z
  M 553.88 821.62
  Q 553.27 843.10 553.22 862.99
  Q 553.20 869.05 558.30 870.27
  Q 565.34 871.95 568.08 867.44
  Q 569.35 865.36 569.39 856.79
  Q 569.59 810.67 569.66 801.02
  C 569.70 795.46 566.80 792.38 561.38 791.71
  Q 553.77 790.76 549.96 798.18
  C 541.52 814.63 535.76 824.88 532.37 833.48
  A 0.33 0.33 0.0 0 1 531.77 833.50
  Q 525.99 821.32 514.86 798.10
  Q 510.68 789.37 500.89 791.47
  C 495.96 792.53 494.88 796.71 494.74 801.72
  Q 493.25 853.72 493.09 859.02
  Q 492.94 864.09 493.80 865.84
  C 496.36 871.01 504.83 871.27 507.94 867.04
  Q 509.57 864.82 509.41 857.71
  Q 509.36 855.18 510.00 821.71
  A 0.21 0.21 0.0 0 1 510.37 821.58
  Q 510.64 821.91 510.85 822.39
  Q 518.71 840.05 524.37 850.88
  Q 526.32 854.61 530.02 854.84
  C 535.61 855.18 537.50 853.30 539.84 848.60
  Q 540.38 847.53 553.54 821.53
  A 0.18 0.18 0.0 0 1 553.88 821.62
  Z
  M 932.04 831.95
  A 0.76 0.76 0.0 0 1 931.01 831.67
  L 927.27 825.19
  A 0.83 0.83 0.0 0 1 927.57 824.06
  L 936.61 818.85
  A 3.43 3.43 0.0 0 0 937.95 814.32
  L 937.77 813.97
  A 3.24 3.24 0.0 0 0 933.26 812.63
  L 924.22 817.85
  A 0.83 0.83 0.0 0 1 923.09 817.54
  L 919.59 811.49
  A 0.78 0.77 60.3 0 1 919.87 810.44
  L 931.05 804.04
  A 3.43 3.43 0.0 0 0 932.32 799.34
  L 932.21 799.16
  A 3.69 3.68 59.9 0 0 927.10 797.80
  Q 918.01 803.26 913.62 805.72
  C 910.22 807.62 908.96 808.83 911.02 812.53
  Q 912.66 815.50 925.29 838.22
  C 927.61 842.40 930.04 841.63 933.56 839.52
  Q 937.31 837.26 947.01 831.80
  A 3.70 3.69 -28.7 0 0 948.46 826.85
  L 948.36 826.64
  A 3.31 3.31 0.0 0 0 943.74 825.23
  L 932.04 831.95
  Z
  M 893.72 825.24
  A 0.41 0.40 61.8 0 1 893.88 824.70
  L 905.64 818.34
  A 3.43 3.43 0.0 0 0 906.93 813.53
  L 906.91 813.49
  A 3.72 3.72 0.0 0 0 901.97 812.10
  Q 896.43 815.04 888.40 819.41
  Q 885.47 821.01 884.87 821.79
  A 3.23 3.23 0.0 0 0 884.56 825.20
  L 899.26 854.19
  A 3.79 3.79 0.0 0 0 904.35 855.86
  L 904.69 855.68
  A 3.93 3.92 63.1 0 0 906.41 850.41
  L 901.18 840.09
  A 0.61 0.60 63.4 0 1 901.45 839.27
  L 910.79 834.53
  A 3.60 3.59 65.6 0 0 912.50 829.97
  L 912.34 829.58
  A 3.16 3.15 -24.3 0 0 907.98 827.94
  L 897.83 833.08
  A 0.13 0.13 0.0 0 1 897.66 833.03
  L 893.72 825.24
  Z
  M 876.83 859.05
  Q 882.07 856.65 882.55 856.44
  A 0.84 0.84 0.0 0 1 883.50 856.64
  L 887.80 861.21
  A 4.28 4.28 0.0 0 0 893.53 861.66
  L 893.79 861.47
  A 3.69 3.68 -41.7 0 0 894.12 856.01
  Q 882.05 843.78 870.90 832.33
  Q 867.65 828.98 863.83 830.74
  Q 860.02 832.48 860.43 837.13
  Q 861.84 853.05 863.24 870.17
  A 3.69 3.68 -7.6 0 0 867.59 873.49
  L 867.92 873.42
  A 4.28 4.28 0.0 0 0 871.30 868.78
  L 870.64 862.54
  A 0.84 0.84 0.0 0 1 871.11 861.69
  Q 871.58 861.46 876.83 859.05
  Z
  M 858.89 873.05
  C 861.49 867.70 854.89 863.04 852.24 869.08
  C 848.41 877.81 839.02 876.11 834.93 868.81
  C 831.46 862.61 829.23 850.57 839.93 849.71
  C 842.07 849.54 844.02 850.57 846.07 850.99
  A 2.72 2.72 0.0 0 0 848.84 849.90
  C 850.36 847.76 850.09 844.63 847.48 843.33
  C 842.85 841.03 837.16 841.78 832.63 844.18
  C 814.64 853.73 827.17 888.45 848.05 882.06
  Q 855.64 879.75 858.89 873.05
  Z
  M 799.07 891.44
  L 789.98 864.63
  A 3.44 3.44 0.0 0 0 785.61 862.48
  L 784.97 862.69
  A 3.99 3.98 -18.7 0 0 782.47 867.73
  Q 792.32 897.07 792.84 898.44
  Q 793.94 901.31 796.97 900.43
  Q 800.61 899.38 814.46 894.49
  A 3.58 3.58 0.0 0 0 816.67 889.96
  L 816.50 889.45
  A 3.14 3.14 0.0 0 0 812.52 887.49
  L 799.80 891.80
  A 0.58 0.58 0.0 0 1 799.07 891.44
  Z
  M 770.16 901.41
  A 0.76 0.76 0.0 0 1 769.22 900.90
  L 767.03 893.74
  A 0.84 0.83 -17.3 0 1 767.57 892.70
  L 777.57 889.65
  A 3.44 3.44 0.0 0 0 779.90 885.53
  L 779.80 885.15
  A 3.25 3.25 0.0 0 0 775.70 882.83
  L 765.70 885.88
  A 0.83 0.83 0.0 0 1 764.67 885.33
  L 762.62 878.63
  A 0.78 0.77 73.3 0 1 763.13 877.67
  L 775.48 873.94
  A 3.44 3.44 0.0 0 0 777.78 869.64
  L 777.71 869.44
  A 3.70 3.69 72.9 0 0 773.03 866.96
  Q 762.93 870.24 758.09 871.66
  C 754.34 872.74 752.84 873.64 754.02 877.72
  Q 754.95 880.99 762.16 906.01
  C 763.48 910.61 766.02 910.41 769.94 909.14
  Q 774.11 907.78 784.80 904.64
  A 3.70 3.70 0.0 0 0 787.33 900.13
  L 787.28 899.90
  A 3.32 3.31 74.9 0 0 783.09 897.49
  L 770.16 901.41
  Z
  M 718.39 886.05
  L 725.75 916.49
  A 3.89 3.89 0.0 0 0 730.45 919.36
  L 740.19 917.00
  A 17.59 17.59 0.0 0 0 753.15 895.77
  L 752.23 891.96
  A 17.59 17.59 0.0 0 0 730.99 879.00
  L 721.26 881.36
  A 3.89 3.89 0.0 0 0 718.39 886.05
  Z
  M 690.06 918.78
  Q 695.68 917.76 696.19 917.68
  A 0.84 0.83 -18.8 0 1 697.06 918.10
  L 700.06 923.54
  A 4.23 4.23 0.0 0 0 705.44 925.38
  L 705.74 925.26
  A 3.65 3.64 -27.3 0 0 707.39 920.11
  Q 698.82 905.41 690.94 891.70
  Q 688.64 887.69 684.55 888.44
  Q 680.46 889.18 679.72 893.73
  Q 677.16 909.34 674.31 926.11
  A 3.65 3.64 6.7 0 0 677.67 930.36
  L 677.99 930.37
  A 4.23 4.23 0.0 0 0 682.38 926.75
  L 683.28 920.61
  A 0.84 0.83 -1.8 0 1 683.94 919.90
  Q 684.44 919.80 690.06 918.78
  Z
  M 663.80 902.85
  C 667.41 901.33 665.88 896.92 663.36 895.38
  C 654.27 889.82 637.81 895.53 641.45 908.73
  C 643.21 915.10 650.41 916.77 656.26 917.44
  Q 657.92 917.63 659.23 918.28
  Q 661.41 919.38 661.67 919.96
  Q 663.47 923.95 660.10 925.73
  C 657.23 927.25 653.54 927.03 650.53 925.37
  C 648.64 924.32 647.02 923.03 645.18 923.93
  C 643.63 924.68 642.78 926.21 643.11 927.96
  C 644.07 932.92 651.48 934.53 655.74 934.19
  Q 660.04 933.84 663.43 932.42
  C 672.47 928.63 672.99 916.40 664.56 911.61
  C 661.51 909.88 656.22 909.61 652.79 908.73
  C 650.74 908.21 648.47 906.95 648.92 904.45
  C 649.43 901.52 652.68 900.60 655.28 900.61
  C 658.04 900.62 660.53 902.86 662.76 903.02
  A 2.26 2.25 -54.2 0 0 663.80 902.85
  Z
  M 623.02 928.45
  Q 628.72 927.89 629.24 927.85
  A 0.84 0.84 0.0 0 1 630.07 928.34
  L 632.63 934.02
  A 4.25 4.25 0.0 0 0 637.86 936.30
  L 638.17 936.20
  A 3.66 3.65 -22.7 0 0 640.24 931.18
  Q 632.86 915.79 626.09 901.44
  Q 624.12 897.25 619.97 897.66
  Q 615.82 898.07 614.71 902.56
  Q 610.89 917.97 606.67 934.50
  A 3.66 3.65 11.4 0 0 609.68 939.02
  L 610.01 939.06
  A 4.25 4.25 0.0 0 0 614.69 935.80
  L 616.09 929.73
  A 0.84 0.84 0.0 0 1 616.80 929.08
  Q 617.32 929.02 623.02 928.45
  Z
  M 571.86 921.55
  C 572.47 930.41 576.77 938.67 586.26 940.38
  Q 594.08 941.80 600.33 937.11
  C 603.15 934.99 605.23 930.82 601.46 928.52
  A 3.00 2.98 -50.9 0 0 597.84 928.90
  Q 595.65 930.99 594.80 931.73
  A 4.65 4.59 14.6 0 1 593.29 932.60
  C 584.72 935.57 580.79 928.29 580.29 920.97
  C 579.78 913.64 582.68 905.90 591.57 907.66
  A 4.65 4.59 -22.5 0 1 593.19 908.32
  Q 594.13 908.94 596.59 910.71
  A 3.00 2.98 43.0 0 0 600.23 910.59
  C 603.65 907.79 601.02 903.95 597.93 902.23
  Q 591.10 898.44 583.55 900.91
  C 574.38 903.91 571.25 912.69 571.86 921.55
  Z
  M 502.09 932.29
  L 503.60 904.23
  A 3.42 3.42 0.0 0 0 500.36 900.64
  L 499.70 900.60
  A 3.96 3.95 3.1 0 0 495.53 904.32
  Q 493.80 934.99 493.77 936.44
  Q 493.73 939.49 496.85 939.80
  Q 500.59 940.17 515.15 940.77
  A 3.55 3.55 0.0 0 0 518.86 937.41
  L 518.89 936.88
  A 3.11 3.11 0.0 0 0 515.94 933.60
  L 502.63 932.89
  A 0.58 0.57 -87.1 0 1 502.09 932.29
  Z
  M 538.73 932.35
  Q 544.46 932.38 544.97 932.39
  A 0.84 0.84 0.0 0 1 545.75 932.97
  L 547.71 938.88
  A 4.24 4.24 0.0 0 0 552.67 941.68
  L 552.99 941.61
  A 3.66 3.65 -16.8 0 0 555.56 936.84
  Q 549.81 920.78 544.56 905.82
  Q 543.03 901.46 538.86 901.44
  Q 534.70 901.42 533.13 905.77
  Q 527.75 920.69 521.86 936.69
  A 3.66 3.65 17.3 0 0 524.39 941.49
  L 524.71 941.56
  A 4.24 4.24 0.0 0 0 529.70 938.80
  L 531.71 932.91
  A 0.84 0.84 0.0 0 1 532.49 932.34
  Q 533.00 932.33 538.73 932.35
  Z"
/>
<path fill="#000000" d="
  M 937.00 496.09
  A 0.54 0.54 0.0 0 0 936.47 496.80
  Q 948.06 530.28 940.11 565.24
  Q 932.96 596.63 913.89 622.43
  C 907.31 631.33 900.35 640.23 893.00 647.56
  Q 867.99 672.48 838.26 690.26
  C 806.18 709.44 769.77 723.93 732.74 734.00
  Q 711.14 739.88 685.37 743.95
  Q 661.57 747.70 637.31 749.73
  C 610.62 751.97 584.42 754.64 558.97 757.61
  C 542.68 759.52 530.15 761.70 509.51 764.80
  Q 500.48 766.16 485.54 770.02
  Q 477.69 772.04 471.03 775.80
  Q 458.11 783.09 460.40 798.52
  Q 460.82 801.33 462.76 806.75
  Q 467.44 819.82 468.63 823.44
  C 472.83 836.29 471.48 850.58 463.47 861.49
  Q 448.28 882.18 422.26 879.21
  C 398.69 876.52 374.61 867.86 351.18 857.54
  C 302.57 836.13 259.65 802.34 232.22 756.30
  C 227.80 748.89 222.95 738.73 220.06 731.93
  Q 216.23 722.91 211.83 707.81
  C 211.06 705.18 211.01 702.36 210.00 700.27
  A 0.81 0.80 53.4 0 0 208.68 700.07
  Q 203.09 706.25 196.04 704.88
  C 188.27 703.37 185.05 697.51 183.06 690.41
  Q 171.50 649.12 180.46 607.48
  C 185.24 585.26 193.52 564.97 204.24 545.10
  A 0.51 0.50 31.6 0 0 204.08 544.44
  C 196.58 539.16 188.49 533.38 181.03 526.44
  C 174.63 520.49 171.43 517.89 165.47 511.62
  Q 150.25 495.61 137.17 476.60
  Q 135.97 474.87 127.00 460.37
  Q 121.92 452.15 117.76 443.64
  Q 108.81 425.32 106.48 419.33
  Q 98.76 399.52 94.58 386.70
  C 90.42 373.97 86.40 358.30 83.72 343.71
  C 79.53 320.95 75.90 298.99 74.43 276.25
  Q 74.19 272.52 74.22 266.00
  C 74.25 260.24 78.49 255.57 83.63 253.73
  Q 85.98 252.89 94.98 252.42
  Q 113.16 251.46 126.26 251.24
  Q 179.34 250.37 230.77 261.30
  Q 254.02 266.23 278.84 274.97
  Q 303.59 283.68 329.67 297.87
  C 342.28 304.73 351.28 310.26 360.27 318.17
  A 0.67 0.66 -42.0 0 0 361.11 318.21
  C 366.33 314.39 371.21 309.78 376.23 306.22
  C 397.39 291.21 418.18 278.68 441.70 268.45
  Q 485.62 249.36 528.49 238.76
  Q 555.22 232.14 578.49 228.47
  Q 604.53 224.37 631.45 223.92
  C 640.85 223.77 649.79 224.54 660.66 225.07
  A 0.96 0.96 0.0 0 0 661.57 224.56
  Q 664.72 218.68 670.21 210.20
  Q 686.58 184.93 709.29 163.06
  Q 740.58 132.94 776.41 111.18
  Q 800.14 96.78 827.60 84.59
  Q 861.88 69.38 892.63 60.16
  Q 904.46 56.62 910.83 66.85
  Q 912.37 69.30 914.05 75.70
  C 917.98 90.67 921.66 102.60 924.36 115.53
  Q 932.42 154.10 933.97 191.25
  Q 935.39 225.04 929.85 259.45
  Q 923.08 301.45 902.06 340.09
  Q 896.78 349.80 891.18 357.44
  Q 884.33 366.78 884.02 367.28
  Q 882.25 370.21 880.77 371.58
  C 879.27 372.98 876.98 375.14 875.79 377.26
  A 1.09 1.08 34.1 0 0 876.06 378.64
  C 884.06 385.12 894.68 393.25 903.03 401.71
  Q 911.63 410.41 914.59 413.68
  Q 917.04 416.38 923.72 424.97
  C 935.89 440.63 945.06 459.98 949.72 478.25
  C 951.87 486.70 946.79 496.47 937.00 496.09
  Z
  M 523.93 598.93
  Q 525.18 600.78 525.83 601.43
  Q 540.72 616.27 557.37 626.89
  Q 572.00 636.21 589.75 642.11
  Q 605.21 647.25 624.86 649.08
  Q 651.31 651.55 680.06 647.30
  Q 691.36 645.63 697.03 642.95
  Q 704.77 639.29 708.56 635.03
  Q 714.91 627.90 716.96 624.20
  Q 721.43 616.14 722.73 607.36
  A 1.14 1.14 0.0 0 0 721.89 606.08
  Q 720.84 605.80 719.50 605.77
  Q 705.42 605.50 693.81 601.51
  Q 684.76 598.40 679.71 594.91
  C 673.92 590.90 666.51 581.83 668.07 573.96
  A 0.57 0.57 0.0 0 0 667.53 573.29
  Q 660.53 573.13 652.97 571.50
  C 643.43 569.44 635.56 567.57 626.54 563.72
  Q 613.27 558.06 601.68 551.29
  Q 589.35 544.09 573.05 532.18
  Q 552.22 516.97 527.71 494.16
  C 509.68 477.38 491.20 462.27 470.51 449.77
  C 456.25 441.15 440.17 434.74 424.89 432.16
  Q 400.11 427.99 376.67 436.58
  Q 360.53 442.50 347.25 452.00
  Q 329.18 464.93 314.53 483.43
  C 307.54 492.26 301.22 503.45 296.68 512.18
  Q 288.54 527.86 282.23 548.96
  C 280.85 553.55 277.63 558.47 272.30 554.99
  Q 270.25 553.65 269.97 551.79
  Q 268.93 544.82 269.14 536.62
  Q 269.63 517.45 274.80 498.51
  C 276.05 493.93 277.70 490.16 278.66 486.34
  Q 279.02 484.92 279.78 484.03
  Q 281.12 482.45 281.61 482.24
  A 2.32 2.28 77.7 0 1 284.76 484.30
  Q 284.86 486.59 284.42 489.70
  C 283.08 499.00 281.30 507.75 281.42 516.58
  A 0.33 0.32 -29.0 0 0 282.02 516.75
  Q 283.20 514.90 284.38 512.14
  C 287.28 505.38 289.95 500.82 293.75 494.36
  Q 307.76 470.51 328.85 452.10
  Q 338.57 443.61 352.90 435.17
  Q 361.76 429.95 370.97 426.70
  Q 382.71 422.55 390.14 421.20
  Q 412.53 417.14 435.93 423.06
  C 443.86 425.07 452.30 427.84 460.35 431.67
  Q 479.96 441.02 497.00 453.78
  Q 513.24 465.94 531.77 482.74
  Q 547.88 497.36 565.27 511.78
  C 583.72 527.08 600.07 538.32 619.81 548.32
  Q 632.40 554.71 643.75 557.83
  Q 656.55 561.34 669.14 562.39
  A 1.86 1.85 21.2 0 0 670.78 561.67
  Q 674.41 556.99 676.99 553.93
  Q 679.64 550.79 684.31 547.43
  C 692.85 541.28 701.69 537.70 711.26 534.45
  Q 714.82 533.24 721.69 532.08
  A 0.74 0.74 0.0 0 0 721.82 530.65
  Q 717.23 528.92 707.02 523.38
  C 693.97 516.31 681.41 506.36 671.34 496.44
  C 661.32 486.59 651.80 475.18 646.45 462.55
  C 637.81 442.15 636.14 420.47 644.13 399.48
  Q 647.48 390.66 648.35 389.01
  C 657.75 371.08 672.95 355.89 691.54 347.20
  Q 700.10 343.21 705.39 341.42
  C 731.25 332.67 760.57 334.25 786.87 343.00
  Q 801.38 347.83 803.72 348.87
  Q 820.87 356.52 838.01 368.80
  Q 838.82 369.39 839.98 369.66
  A 0.47 0.47 0.0 0 0 840.51 369.00
  C 834.56 356.86 827.58 347.19 817.55 332.45
  C 816.31 330.63 812.89 325.54 814.68 323.46
  C 816.72 321.10 818.38 323.21 820.21 324.82
  Q 826.06 329.97 832.00 336.90
  Q 842.92 349.61 851.34 362.19
  A 0.49 0.48 50.8 0 0 852.09 362.27
  Q 855.68 358.81 858.71 354.97
  Q 872.15 337.98 881.95 318.77
  Q 893.60 295.94 900.08 267.42
  Q 908.90 228.55 906.18 188.02
  Q 904.11 157.14 897.78 124.63
  C 895.45 112.66 892.46 102.84 889.53 91.41
  A 1.23 1.23 0.0 0 0 887.92 90.55
  C 866.71 98.18 845.19 106.40 824.65 116.58
  C 807.51 125.08 792.27 133.62 775.61 144.85
  C 763.59 152.97 755.61 159.15 744.36 168.71
  C 728.01 182.59 712.98 197.90 700.69 214.86
  Q 692.05 226.80 685.24 238.73
  Q 683.82 241.20 683.33 242.76
  A 0.51 0.50 17.2 0 0 683.67 243.39
  Q 700.67 248.65 706.38 250.65
  Q 714.82 253.61 724.54 258.24
  Q 727.26 259.54 729.24 261.53
  A 2.45 2.12 44.2 0 1 729.51 264.68
  C 727.68 266.68 722.42 265.15 719.85 264.47
  Q 701.28 259.54 679.51 255.73
  C 665.90 253.35 649.36 252.63 637.25 252.44
  Q 611.72 252.04 584.50 256.00
  Q 569.15 258.23 537.36 265.68
  Q 522.56 269.15 504.80 275.12
  Q 477.18 284.41 472.77 286.26
  Q 448.65 296.39 444.13 298.62
  Q 411.22 314.86 388.70 332.22
  Q 367.35 348.68 348.73 368.72
  Q 333.30 385.31 328.91 390.40
  Q 327.02 392.60 324.35 392.47
  A 1.38 1.38 0.0 0 1 323.03 390.94
  Q 323.29 388.39 324.58 386.08
  Q 330.10 376.20 335.03 369.50
  Q 344.22 357.04 352.54 347.41
  A 0.57 0.57 0.0 0 0 352.48 346.61
  Q 340.00 335.88 325.59 327.42
  Q 298.60 311.59 268.22 300.56
  Q 253.12 295.07 226.72 288.82
  Q 217.84 286.72 204.66 284.77
  Q 184.76 281.82 182.47 281.57
  Q 147.56 277.86 104.03 279.84
  A 0.69 0.69 0.0 0 0 103.37 280.56
  Q 103.76 289.00 105.26 300.79
  Q 108.11 323.20 113.53 348.63
  C 117.84 368.85 124.21 387.79 131.44 406.11
  Q 145.09 440.68 167.66 471.10
  C 183.94 493.06 204.66 512.46 228.21 526.59
  A 1.84 1.83 35.9 0 0 230.55 526.22
  Q 236.93 518.90 243.65 512.79
  C 245.44 511.16 246.23 510.91 248.54 511.54
  A 1.27 1.27 0.0 0 1 249.44 513.10
  Q 248.77 515.56 248.17 516.94
  Q 239.61 536.39 228.70 556.91
  Q 222.65 568.29 217.59 580.30
  Q 204.71 610.86 204.14 643.73
  Q 203.99 652.54 205.39 660.44
  A 0.93 0.93 0.0 0 0 207.10 660.75
  Q 216.22 645.26 227.63 632.64
  Q 230.46 629.52 233.59 627.70
  C 235.91 626.36 237.52 629.20 237.09 631.21
  Q 229.96 664.22 237.18 695.05
  Q 241.43 713.20 247.72 726.79
  Q 261.09 755.67 284.55 779.69
  C 304.84 800.45 330.75 818.25 358.64 830.72
  C 370.88 836.19 382.28 841.05 394.04 844.58
  A 0.21 0.21 0.0 0 0 394.27 844.27
  Q 393.54 843.12 392.36 842.37
  Q 376.67 832.43 364.96 823.79
  Q 343.06 807.64 323.30 786.72
  Q 310.25 772.89 300.45 756.30
  C 292.81 743.37 282.97 719.31 294.45 705.98
  Q 295.84 704.37 300.65 702.25
  A 0.78 0.77 73.8 0 0 301.10 701.42
  Q 299.58 691.66 299.15 688.03
  Q 297.33 672.57 298.71 659.48
  C 301.12 636.56 312.53 615.59 330.65 600.62
  Q 354.23 581.15 386.76 579.37
  Q 421.21 577.48 453.46 591.40
  Q 482.40 603.88 487.30 605.95
  Q 490.15 607.16 493.54 608.27
  A 1.09 1.08 -71.8 0 0 494.91 607.57
  Q 496.31 603.33 499.25 598.79
  C 505.44 589.26 516.39 585.97 527.76 585.73
  A 3.02 3.01 52.7 0 1 528.70 585.86
  Q 532.27 586.96 532.73 590.79
  C 533.30 595.55 528.44 597.05 524.16 598.29
  A 0.42 0.42 0.0 0 0 523.93 598.93
  Z
  M 832.47 661.48
  A 0.12 0.11 3.9 0 0 832.62 661.65
  Q 856.18 646.49 875.25 626.76
  Q 898.38 602.83 909.47 572.71
  Q 912.24 565.20 914.04 554.00
  C 917.19 534.41 915.42 512.93 906.62 495.57
  Q 898.77 480.10 885.08 468.91
  C 883.07 467.26 881.40 465.35 883.76 463.27
  A 1.57 1.57 0.0 0 1 884.74 462.88
  Q 896.29 462.37 907.16 465.11
  Q 910.61 465.99 915.20 467.10
  A 0.78 0.78 0.0 0 0 916.10 466.04
  Q 913.53 459.89 908.97 452.54
  Q 898.34 435.39 883.37 421.21
  Q 877.58 415.72 861.46 402.58
  Q 849.08 392.49 839.29 384.23
  Q 833.19 379.09 825.87 374.24
  Q 815.59 367.44 811.68 365.37
  Q 796.15 357.13 776.05 351.47
  C 754.87 345.51 732.15 345.06 711.00 351.45
  Q 680.82 360.58 663.45 386.11
  Q 648.99 407.38 650.71 434.24
  C 651.64 448.73 659.60 465.07 668.44 476.30
  Q 680.53 491.66 696.92 503.07
  Q 715.88 516.28 734.42 524.03
  C 738.09 525.56 743.13 527.55 747.49 527.00
  Q 754.38 526.15 760.52 523.01
  C 779.90 513.08 797.92 499.89 820.49 498.30
  C 845.82 496.51 866.82 511.38 876.01 534.66
  Q 880.12 545.07 881.00 552.26
  Q 884.24 578.51 873.70 603.22
  Q 867.08 618.72 860.02 628.59
  C 854.35 636.52 849.34 643.47 843.76 649.26
  Q 836.84 656.43 832.47 661.48
  Z
  M 508.32 610.46
  Q 506.93 613.40 506.00 616.40
  Q 504.29 621.89 499.23 622.07
  A 2.33 2.27 -33.8 0 1 498.31 621.90
  C 489.39 618.20 480.00 615.19 471.36 611.17
  C 460.13 605.97 452.02 602.61 440.47 598.19
  C 422.00 591.12 400.36 588.33 381.45 590.60
  Q 351.96 594.16 330.95 615.42
  C 322.29 624.18 315.10 637.16 311.76 648.53
  C 307.09 664.44 309.21 683.21 311.78 700.99
  C 312.80 708.02 307.92 709.65 302.87 712.61
  C 297.29 715.89 301.25 730.14 302.83 734.70
  Q 307.34 747.77 315.78 759.72
  Q 326.23 774.50 338.95 786.79
  C 361.84 808.90 387.60 827.27 415.61 843.39
  Q 421.51 846.79 426.57 849.09
  A 6.67 6.41 60.8 0 0 428.25 849.60
  Q 439.97 851.51 442.34 839.74
  C 443.25 835.20 440.36 828.01 438.60 824.06
  C 434.78 815.47 432.22 804.77 431.64 797.00
  C 430.03 775.11 443.72 756.60 463.36 748.16
  Q 476.69 742.42 485.85 740.42
  Q 505.49 736.12 528.50 733.01
  Q 572.02 727.14 603.03 724.40
  Q 647.62 720.48 649.24 720.31
  C 681.58 716.98 712.94 711.39 743.25 701.25
  Q 752.30 698.23 764.04 692.55
  C 800.65 674.88 835.34 649.69 856.02 614.17
  C 865.35 598.15 870.30 582.56 870.80 564.48
  C 871.24 548.44 865.26 531.28 853.32 520.19
  C 838.46 506.38 818.28 506.43 800.35 514.37
  Q 788.48 519.63 776.75 526.86
  C 773.26 529.01 769.17 530.67 766.17 532.81
  A 0.70 0.69 39.4 0 0 766.29 534.01
  Q 778.17 539.33 782.73 550.73
  C 786.52 560.21 787.50 573.03 786.69 584.48
  Q 785.59 599.78 778.99 612.03
  Q 773.77 621.72 771.07 624.88
  Q 759.85 638.07 748.55 644.81
  Q 736.28 652.12 723.54 656.50
  Q 710.07 661.12 702.31 662.78
  C 667.20 670.29 629.65 671.46 594.50 663.26
  Q 585.64 661.19 580.05 658.95
  C 569.65 654.78 558.23 650.01 548.63 643.75
  Q 538.84 637.36 527.04 627.92
  C 520.30 622.54 514.55 616.45 508.91 610.37
  A 0.36 0.36 0.0 0 0 508.32 610.46
  Z
  M 756.8102 550.9587
  A 29.25 10.35 -12.1 0 0 726.0404 546.9699
  A 29.25 10.35 -12.1 0 0 699.6098 563.2213
  A 29.25 10.35 -12.1 0 0 730.3796 567.2101
  A 29.25 10.35 -12.1 0 0 756.8102 550.9587
  Z
  M 767.82 585.82
  Q 764.80 588.32 762.54 590.62
  Q 758.64 594.59 757.46 595.39
  C 752.22 598.91 747.66 601.20 741.29 603.80
  A 0.75 0.74 -9.7 0 0 740.83 604.44
  Q 740.24 614.09 737.36 622.75
  C 736.50 625.34 735.11 627.41 733.43 630.75
  A 0.27 0.27 0.0 0 0 733.74 631.14
  C 737.34 630.27 740.66 627.63 744.73 624.81
  C 751.27 620.30 756.09 614.43 760.34 608.39
  C 764.31 602.76 767.24 593.02 768.47 586.20
  A 0.40 0.40 0.0 0 0 767.82 585.82
  Z"
/>
<path fill="#ffffff" d="
  M 524.16 598.29
  C 528.44 597.05 533.30 595.55 532.73 590.79
  Q 532.27 586.96 528.70 585.86
  A 3.02 3.01 52.7 0 0 527.76 585.73
  C 516.39 585.97 505.44 589.26 499.25 598.79
  Q 496.31 603.33 494.91 607.57
  A 1.09 1.08 -71.8 0 1 493.54 608.27
  Q 490.15 607.16 487.30 605.95
  Q 482.40 603.88 453.46 591.40
  Q 421.21 577.48 386.76 579.37
  Q 354.23 581.15 330.65 600.62
  C 312.53 615.59 301.12 636.56 298.71 659.48
  Q 297.33 672.57 299.15 688.03
  Q 299.58 691.66 301.10 701.42
  A 0.78 0.77 73.8 0 1 300.65 702.25
  Q 295.84 704.37 294.45 705.98
  C 282.97 719.31 292.81 743.37 300.45 756.30
  Q 310.25 772.89 323.30 786.72
  Q 343.06 807.64 364.96 823.79
  Q 376.67 832.43 392.36 842.37
  Q 393.54 843.12 394.27 844.27
  A 0.21 0.21 0.0 0 1 394.04 844.58
  C 382.28 841.05 370.88 836.19 358.64 830.72
  C 330.75 818.25 304.84 800.45 284.55 779.69
  Q 261.09 755.67 247.72 726.79
  Q 241.43 713.20 237.18 695.05
  Q 229.96 664.22 237.09 631.21
  C 237.52 629.20 235.91 626.36 233.59 627.70
  Q 230.46 629.52 227.63 632.64
  Q 216.22 645.26 207.10 660.75
  A 0.93 0.93 0.0 0 1 205.39 660.44
  Q 203.99 652.54 204.14 643.73
  Q 204.71 610.86 217.59 580.30
  Q 222.65 568.29 228.70 556.91
  Q 239.61 536.39 248.17 516.94
  Q 248.77 515.56 249.44 513.10
  A 1.27 1.27 0.0 0 0 248.54 511.54
  C 246.23 510.91 245.44 511.16 243.65 512.79
  Q 236.93 518.90 230.55 526.22
  A 1.84 1.83 35.9 0 1 228.21 526.59
  C 204.66 512.46 183.94 493.06 167.66 471.10
  Q 145.09 440.68 131.44 406.11
  C 124.21 387.79 117.84 368.85 113.53 348.63
  Q 108.11 323.20 105.26 300.79
  Q 103.76 289.00 103.37 280.56
  A 0.69 0.69 0.0 0 1 104.03 279.84
  Q 147.56 277.86 182.47 281.57
  Q 184.76 281.82 204.66 284.77
  Q 217.84 286.72 226.72 288.82
  Q 253.12 295.07 268.22 300.56
  Q 298.60 311.59 325.59 327.42
  Q 340.00 335.88 352.48 346.61
  A 0.57 0.57 0.0 0 1 352.54 347.41
  Q 344.22 357.04 335.03 369.50
  Q 330.10 376.20 324.58 386.08
  Q 323.29 388.39 323.03 390.94
  A 1.38 1.38 0.0 0 0 324.35 392.47
  Q 327.02 392.60 328.91 390.40
  Q 333.30 385.31 348.73 368.72
  Q 367.35 348.68 388.70 332.22
  Q 411.22 314.86 444.13 298.62
  Q 448.65 296.39 472.77 286.26
  Q 477.18 284.41 504.80 275.12
  Q 522.56 269.15 537.36 265.68
  Q 569.15 258.23 584.50 256.00
  Q 611.72 252.04 637.25 252.44
  C 649.36 252.63 665.90 253.35 679.51 255.73
  Q 701.28 259.54 719.85 264.47
  C 722.42 265.15 727.68 266.68 729.51 264.68
  A 2.45 2.12 44.2 0 0 729.24 261.53
  Q 727.26 259.54 724.54 258.24
  Q 714.82 253.61 706.38 250.65
  Q 700.67 248.65 683.67 243.39
  A 0.51 0.50 17.2 0 1 683.33 242.76
  Q 683.82 241.20 685.24 238.73
  Q 692.05 226.80 700.69 214.86
  C 712.98 197.90 728.01 182.59 744.36 168.71
  C 755.61 159.15 763.59 152.97 775.61 144.85
  C 792.27 133.62 807.51 125.08 824.65 116.58
  C 845.19 106.40 866.71 98.18 887.92 90.55
  A 1.23 1.23 0.0 0 1 889.53 91.41
  C 892.46 102.84 895.45 112.66 897.78 124.63
  Q 904.11 157.14 906.18 188.02
  Q 908.90 228.55 900.08 267.42
  Q 893.60 295.94 881.95 318.77
  Q 872.15 337.98 858.71 354.97
  Q 855.68 358.81 852.09 362.27
  A 0.49 0.48 50.8 0 1 851.34 362.19
  Q 842.92 349.61 832.00 336.90
  Q 826.06 329.97 820.21 324.82
  C 818.38 323.21 816.72 321.10 814.68 323.46
  C 812.89 325.54 816.31 330.63 817.55 332.45
  C 827.58 347.19 834.56 356.86 840.51 369.00
  A 0.47 0.47 0.0 0 1 839.98 369.66
  Q 838.82 369.39 838.01 368.80
  Q 820.87 356.52 803.72 348.87
  Q 801.38 347.83 786.87 343.00
  C 760.57 334.25 731.25 332.67 705.39 341.42
  Q 700.10 343.21 691.54 347.20
  C 672.95 355.89 657.75 371.08 648.35 389.01
  Q 647.48 390.66 644.13 399.48
  C 636.14 420.47 637.81 442.15 646.45 462.55
  C 651.80 475.18 661.32 486.59 671.34 496.44
  C 681.41 506.36 693.97 516.31 707.02 523.38
  Q 717.23 528.92 721.82 530.65
  A 0.74 0.74 0.0 0 1 721.69 532.08
  Q 714.82 533.24 711.26 534.45
  C 701.69 537.70 692.85 541.28 684.31 547.43
  Q 679.64 550.79 676.99 553.93
  Q 674.41 556.99 670.78 561.67
  A 1.86 1.85 21.2 0 1 669.14 562.39
  Q 656.55 561.34 643.75 557.83
  Q 632.40 554.71 619.81 548.32
  C 600.07 538.32 583.72 527.08 565.27 511.78
  Q 547.88 497.36 531.77 482.74
  Q 513.24 465.94 497.00 453.78
  Q 479.96 441.02 460.35 431.67
  C 452.30 427.84 443.86 425.07 435.93 423.06
  Q 412.53 417.14 390.14 421.20
  Q 382.71 422.55 370.97 426.70
  Q 361.76 429.95 352.90 435.17
  Q 338.57 443.61 328.85 452.10
  Q 307.76 470.51 293.75 494.36
  C 289.95 500.82 287.28 505.38 284.38 512.14
  Q 283.20 514.90 282.02 516.75
  A 0.33 0.32 -29.0 0 1 281.42 516.58
  C 281.30 507.75 283.08 499.00 284.42 489.70
  Q 284.86 486.59 284.76 484.30
  A 2.32 2.28 77.7 0 0 281.61 482.24
  Q 281.12 482.45 279.78 484.03
  Q 279.02 484.92 278.66 486.34
  C 277.70 490.16 276.05 493.93 274.80 498.51
  Q 269.63 517.45 269.14 536.62
  Q 268.93 544.82 269.97 551.79
  Q 270.25 553.65 272.30 554.99
  C 277.63 558.47 280.85 553.55 282.23 548.96
  Q 288.54 527.86 296.68 512.18
  C 301.22 503.45 307.54 492.26 314.53 483.43
  Q 329.18 464.93 347.25 452.00
  Q 360.53 442.50 376.67 436.58
  Q 400.11 427.99 424.89 432.16
  C 440.17 434.74 456.25 441.15 470.51 449.77
  C 491.20 462.27 509.68 477.38 527.71 494.16
  Q 552.22 516.97 573.05 532.18
  Q 589.35 544.09 601.68 551.29
  Q 613.27 558.06 626.54 563.72
  C 635.56 567.57 643.43 569.44 652.97 571.50
  Q 660.53 573.13 667.53 573.29
  A 0.57 0.57 0.0 0 1 668.07 573.96
  C 666.51 581.83 673.92 590.90 679.71 594.91
  Q 684.76 598.40 693.81 601.51
  Q 705.42 605.50 719.50 605.77
  Q 720.84 605.80 721.89 606.08
  A 1.14 1.14 0.0 0 1 722.73 607.36
  Q 721.43 616.14 716.96 624.20
  Q 714.91 627.90 708.56 635.03
  Q 704.77 639.29 697.03 642.95
  Q 691.36 645.63 680.06 647.30
  Q 651.31 651.55 624.86 649.08
  Q 605.21 647.25 589.75 642.11
  Q 572.00 636.21 557.37 626.89
  Q 540.72 616.27 525.83 601.43
  Q 525.18 600.78 523.93 598.93
  A 0.42 0.42 0.0 0 1 524.16 598.29
  Z
  M 831.67 286.99
  C 833.56 285.64 834.77 283.78 837.07 281.22
  C 843.25 274.32 847.59 265.61 850.05 257.02
  Q 859.21 225.02 853.39 190.29
  Q 851.54 179.23 848.86 165.73
  A 0.38 0.38 0.0 0 0 848.38 165.44
  C 842.97 167.02 839.08 168.73 831.49 172.23
  Q 802.62 185.55 781.79 209.25
  Q 770.40 222.21 765.58 238.17
  A 0.54 0.54 0.0 0 1 764.85 238.51
  Q 759.93 236.34 754.43 235.58
  A 13.61 13.02 -30.8 0 1 752.26 235.08
  C 749.33 234.13 746.18 232.94 743.55 233.51
  A 1.39 1.36 10.4 0 0 742.73 234.06
  C 740.59 237.15 743.47 239.25 745.94 240.41
  Q 759.91 246.96 774.69 255.64
  Q 789.10 264.10 801.56 273.98
  Q 821.58 289.89 837.83 308.88
  Q 839.49 310.82 841.40 310.57
  C 843.91 310.24 843.89 306.62 843.05 305.21
  Q 838.38 297.31 831.56 287.59
  A 0.44 0.43 -35.0 0 1 831.67 286.99
  Z
  M 277.78 381.71
  C 275.82 379.84 274.34 377.36 272.25 375.21
  Q 263.82 366.57 250.88 359.86
  C 225.19 346.53 195.92 341.82 167.30 343.15
  A 0.65 0.64 -11.7 0 0 166.72 344.02
  C 168.50 348.74 168.73 353.90 169.95 358.52
  Q 175.05 377.89 178.61 386.67
  Q 181.34 393.43 182.39 396.20
  C 186.13 406.06 191.73 415.41 197.29 424.30
  C 202.13 432.05 207.08 437.73 213.41 444.45
  Q 223.71 455.38 236.30 460.97
  Q 240.08 462.66 242.99 463.22
  A 0.69 0.69 0.0 0 1 243.54 464.00
  C 242.34 471.59 241.13 479.29 242.31 486.85
  A 2.13 2.11 3.2 0 0 243.86 488.57
  Q 246.47 489.26 247.88 488.22
  A 1.38 1.34 -14.0 0 0 248.42 487.35
  C 251.04 472.88 255.59 457.21 260.57 443.29
  Q 276.34 399.26 303.76 365.48
  Q 306.34 362.30 303.54 359.79
  A 2.61 2.61 0.0 0 0 300.12 359.72
  Q 288.47 369.49 278.38 381.68
  A 0.41 0.41 0.0 0 1 277.78 381.71
  Z
  M 416.4866 472.4343
  A 39.26 38.71 -83.1 0 0 373.3404 506.7595
  A 39.26 38.71 -83.1 0 0 407.0534 550.3857
  A 39.26 38.71 -83.1 0 0 450.1996 516.0605
  A 39.26 38.71 -83.1 0 0 416.4866 472.4343
  Z"
/>
<path fill="#000000" d="
  M 831.67 286.99
  A 0.44 0.43 -35.0 0 0 831.56 287.59
  Q 838.38 297.31 843.05 305.21
  C 843.89 306.62 843.91 310.24 841.40 310.57
  Q 839.49 310.82 837.83 308.88
  Q 821.58 289.89 801.56 273.98
  Q 789.10 264.10 774.69 255.64
  Q 759.91 246.96 745.94 240.41
  C 743.47 239.25 740.59 237.15 742.73 234.06
  A 1.39 1.36 10.4 0 1 743.55 233.51
  C 746.18 232.94 749.33 234.13 752.26 235.08
  A 13.61 13.02 -30.8 0 0 754.43 235.58
  Q 759.93 236.34 764.85 238.51
  A 0.54 0.54 0.0 0 0 765.58 238.17
  Q 770.40 222.21 781.79 209.25
  Q 802.62 185.55 831.49 172.23
  C 839.08 168.73 842.97 167.02 848.38 165.44
  A 0.38 0.38 0.0 0 1 848.86 165.73
  Q 851.54 179.23 853.39 190.29
  Q 859.21 225.02 850.05 257.02
  C 847.59 265.61 843.25 274.32 837.07 281.22
  C 834.77 283.78 833.56 285.64 831.67 286.99
  Z"
/>
<path fill="#000000" d="
  M 277.78 381.71
  A 0.41 0.41 0.0 0 0 278.38 381.68
  Q 288.47 369.49 300.12 359.72
  A 2.61 2.61 0.0 0 1 303.54 359.79
  Q 306.34 362.30 303.76 365.48
  Q 276.34 399.26 260.57 443.29
  C 255.59 457.21 251.04 472.88 248.42 487.35
  A 1.38 1.34 -14.0 0 1 247.88 488.22
  Q 246.47 489.26 243.86 488.57
  A 2.13 2.11 3.2 0 1 242.31 486.85
  C 241.13 479.29 242.34 471.59 243.54 464.00
  A 0.69 0.69 0.0 0 0 242.99 463.22
  Q 240.08 462.66 236.30 460.97
  Q 223.71 455.38 213.41 444.45
  C 207.08 437.73 202.13 432.05 197.29 424.30
  C 191.73 415.41 186.13 406.06 182.39 396.20
  Q 181.34 393.43 178.61 386.67
  Q 175.05 377.89 169.95 358.52
  C 168.73 353.90 168.50 348.74 166.72 344.02
  A 0.65 0.64 -11.7 0 1 167.30 343.15
  C 195.92 341.82 225.19 346.53 250.88 359.86
  Q 263.82 366.57 272.25 375.21
  C 274.34 377.36 275.82 379.84 277.78 381.71
  Z"
/>
<path fill="#ffffff" d="
  M 832.47 661.48
  Q 836.84 656.43 843.76 649.26
  C 849.34 643.47 854.35 636.52 860.02 628.59
  Q 867.08 618.72 873.70 603.22
  Q 884.24 578.51 881.00 552.26
  Q 880.12 545.07 876.01 534.66
  C 866.82 511.38 845.82 496.51 820.49 498.30
  C 797.92 499.89 779.90 513.08 760.52 523.01
  Q 754.38 526.15 747.49 527.00
  C 743.13 527.55 738.09 525.56 734.42 524.03
  Q 715.88 516.28 696.92 503.07
  Q 680.53 491.66 668.44 476.30
  C 659.60 465.07 651.64 448.73 650.71 434.24
  Q 648.99 407.38 663.45 386.11
  Q 680.82 360.58 711.00 351.45
  C 732.15 345.06 754.87 345.51 776.05 351.47
  Q 796.15 357.13 811.68 365.37
  Q 815.59 367.44 825.87 374.24
  Q 833.19 379.09 839.29 384.23
  Q 849.08 392.49 861.46 402.58
  Q 877.58 415.72 883.37 421.21
  Q 898.34 435.39 908.97 452.54
  Q 913.53 459.89 916.10 466.04
  A 0.78 0.78 0.0 0 1 915.20 467.10
  Q 910.61 465.99 907.16 465.11
  Q 896.29 462.37 884.74 462.88
  A 1.57 1.57 0.0 0 0 883.76 463.27
  C 881.40 465.35 883.07 467.26 885.08 468.91
  Q 898.77 480.10 906.62 495.57
  C 915.42 512.93 917.19 534.41 914.04 554.00
  Q 912.24 565.20 909.47 572.71
  Q 898.38 602.83 875.25 626.76
  Q 856.18 646.49 832.62 661.65
  A 0.12 0.11 3.9 0 1 832.47 661.48
  Z
  M 756.40 432.40
  A 39.11 39.11 0.0 0 0 717.29 393.29
  A 39.11 39.11 0.0 0 0 678.18 432.40
  A 39.11 39.11 0.0 0 0 717.29 471.51
  A 39.11 39.11 0.0 0 0 756.40 432.40
  Z"
/>
<path fill="#000000" d="
  M 756.40 432.40
  A 39.11 39.11 0.0 0 1 717.29 471.51
  A 39.11 39.11 0.0 0 1 678.18 432.40
  A 39.11 39.11 0.0 0 1 717.29 393.29
  A 39.11 39.11 0.0 0 1 756.40 432.40
  Z
  M 740.60 419.38
  A 15.36 15.36 0.0 0 0 725.24 404.02
  A 15.36 15.36 0.0 0 0 709.88 419.38
  A 15.36 15.36 0.0 0 0 725.24 434.74
  A 15.36 15.36 0.0 0 0 740.60 419.38
  Z"
/>
<circle fill="#ffffff" cx="725.24" cy="419.38" r="15.36"/>
<path fill="#000000" d="
  M 416.4866 472.4343
  A 39.26 38.71 -83.1 0 1 450.1996 516.0605
  A 39.26 38.71 -83.1 0 1 407.0534 550.3857
  A 39.26 38.71 -83.1 0 1 373.3404 506.7595
  A 39.26 38.71 -83.1 0 1 416.4866 472.4343
  Z
  M 405.5122 493.1936
  A 15.47 15.30 -159.9 0 0 414.7820 512.8781
  A 15.47 15.30 -159.9 0 0 434.5678 503.8264
  A 15.47 15.30 -159.9 0 0 425.2980 484.1419
  A 15.47 15.30 -159.9 0 0 405.5122 493.1936
  Z"
/>
<ellipse fill="#ffffff" cx="0.00" cy="0.00" transform="translate(420.04,498.51) rotate(-159.9)" rx="15.47" ry="15.30"/>
<path fill="#ffffff" d="
  M 508.32 610.46
  A 0.36 0.36 0.0 0 1 508.91 610.37
  C 514.55 616.45 520.30 622.54 527.04 627.92
  Q 538.84 637.36 548.63 643.75
  C 558.23 650.01 569.65 654.78 580.05 658.95
  Q 585.64 661.19 594.50 663.26
  C 629.65 671.46 667.20 670.29 702.31 662.78
  Q 710.07 661.12 723.54 656.50
  Q 736.28 652.12 748.55 644.81
  Q 759.85 638.07 771.07 624.88
  Q 773.77 621.72 778.99 612.03
  Q 785.59 599.78 786.69 584.48
  C 787.50 573.03 786.52 560.21 782.73 550.73
  Q 778.17 539.33 766.29 534.01
  A 0.70 0.69 39.4 0 1 766.17 532.81
  C 769.17 530.67 773.26 529.01 776.75 526.86
  Q 788.48 519.63 800.35 514.37
  C 818.28 506.43 838.46 506.38 853.32 520.19
  C 865.26 531.28 871.24 548.44 870.80 564.48
  C 870.30 582.56 865.35 598.15 856.02 614.17
  C 835.34 649.69 800.65 674.88 764.04 692.55
  Q 752.30 698.23 743.25 701.25
  C 712.94 711.39 681.58 716.98 649.24 720.31
  Q 647.62 720.48 603.03 724.40
  Q 572.02 727.14 528.50 733.01
  Q 505.49 736.12 485.85 740.42
  Q 476.69 742.42 463.36 748.16
  C 443.72 756.60 430.03 775.11 431.64 797.00
  C 432.22 804.77 434.78 815.47 438.60 824.06
  C 440.36 828.01 443.25 835.20 442.34 839.74
  Q 439.97 851.51 428.25 849.60
  A 6.67 6.41 60.8 0 1 426.57 849.09
  Q 421.51 846.79 415.61 843.39
  C 387.60 827.27 361.84 808.90 338.95 786.79
  Q 326.23 774.50 315.78 759.72
  Q 307.34 747.77 302.83 734.70
  C 301.25 730.14 297.29 715.89 302.87 712.61
  C 307.92 709.65 312.80 708.02 311.78 700.99
  C 309.21 683.21 307.09 664.44 311.76 648.53
  C 315.10 637.16 322.29 624.18 330.95 615.42
  Q 351.96 594.16 381.45 590.60
  C 400.36 588.33 422.00 591.12 440.47 598.19
  C 452.02 602.61 460.13 605.97 471.36 611.17
  C 480.00 615.19 489.39 618.20 498.31 621.90
  A 2.33 2.27 -33.8 0 0 499.23 622.07
  Q 504.29 621.89 506.00 616.40
  Q 506.93 613.40 508.32 610.46
  Z"
/>
<ellipse fill="#ffffff" cx="0.00" cy="0.00" transform="translate(728.21,557.09) rotate(-12.1)" rx="29.25" ry="10.35"/>
<path fill="#ffffff" d="
  M 767.82 585.82
  A 0.40 0.40 0.0 0 1 768.47 586.20
  C 767.24 593.02 764.31 602.76 760.34 608.39
  C 756.09 614.43 751.27 620.30 744.73 624.81
  C 740.66 627.63 737.34 630.27 733.74 631.14
  A 0.27 0.27 0.0 0 1 733.43 630.75
  C 735.11 627.41 736.50 625.34 737.36 622.75
  Q 740.24 614.09 740.83 604.44
  A 0.75 0.74 -9.7 0 1 741.29 603.80
  C 747.66 601.20 752.22 598.91 757.46 595.39
  Q 758.64 594.59 762.54 590.62
  Q 764.80 588.32 767.82 585.82
  Z"
/>
<path fill="#000000" d="
  M 932.41 719.61
  C 941.62 738.60 939.35 760.50 918.60 770.55
  C 897.86 780.60 879.27 768.82 870.06 749.83
  C 860.86 730.84 863.13 708.94 883.87 698.89
  C 904.62 688.84 923.21 700.62 932.41 719.61
  Z
  M 889.32 712.65
  C 877.26 719.16 880.23 733.40 885.50 743.17
  C 890.77 752.94 901.03 763.26 913.09 756.75
  C 925.16 750.25 922.18 736.01 916.92 726.24
  C 911.65 716.47 901.39 706.15 889.32 712.65
  Z"
/>
<path fill="#ffffff" d="
  M 916.92 726.24
  C 922.18 736.01 925.16 750.25 913.09 756.75
  C 901.03 763.26 890.77 752.94 885.50 743.17
  C 880.23 733.40 877.26 719.16 889.32 712.65
  C 901.39 706.15 911.65 716.47 916.92 726.24
  Z"
/>
<path fill="#000000" d="
  M 862.93 778.14
  C 866.21 767.94 879.07 772.95 876.85 782.89
  C 874.36 794.08 865.09 802.00 854.25 805.33
  C 828.65 813.18 810.08 789.06 807.41 766.52
  Q 805.11 747.05 819.39 735.45
  Q 825.96 730.11 833.99 728.27
  C 840.01 726.89 849.32 726.76 853.89 731.61
  Q 858.25 736.23 855.30 741.59
  C 853.02 745.75 849.08 745.19 844.54 743.63
  Q 836.93 741.01 829.93 745.98
  C 819.68 753.27 823.01 767.88 827.94 777.10
  C 832.80 786.18 840.76 793.83 851.73 790.55
  C 857.67 788.77 861.07 783.93 862.93 778.14
  Z"
/>
<path fill="#000000" d="
  M 784.55 764.66
  C 771.90 764.48 771.44 747.67 783.40 746.32
  C 788.48 745.74 792.52 749.59 794.13 754.15
  C 797.01 762.31 796.50 775.32 789.37 781.73
  A 2.09 2.01 -71.7 0 1 788.48 782.20
  C 785.94 782.84 781.25 780.20 782.83 777.01
  C 784.68 773.26 786.75 769.12 785.31 765.19
  A 0.81 0.80 -9.7 0 0 784.55 764.66
  Z"
/>
<path fill="#000000" d="
  M 746.80 826.39
  Q 746.58 828.01 746.46 836.21
  C 746.39 841.22 745.26 845.32 740.35 846.75
  C 734.85 848.34 729.90 845.13 730.34 839.27
  Q 731.61 822.65 735.08 777.38
  Q 735.62 770.25 737.22 767.96
  Q 740.21 763.68 746.36 762.90
  Q 752.69 762.11 756.53 767.51
  Q 780.10 800.64 794.10 820.13
  C 800.90 829.58 786.10 838.46 779.65 828.58
  Q 778.29 826.49 773.55 819.29
  A 1.34 1.33 65.3 0 0 772.08 818.74
  L 747.31 825.80
  A 0.73 0.72 86.3 0 0 746.80 826.39
  Z
  M 747.71 810.80
  A 0.34 0.34 0.0 0 0 748.14 811.15
  L 764.45 806.78
  A 0.34 0.34 0.0 0 0 764.64 806.27
  L 749.75 783.28
  A 0.34 0.34 0.0 0 0 749.12 783.45
  L 747.71 810.80
  Z"
/>
<path fill="#000000" d="
  M 674.78 813.08
  A 0.21 0.21 0.0 0 0 675.17 813.15
  Q 681.26 802.11 695.53 778.80
  C 697.97 774.81 703.10 773.11 706.84 776.26
  C 711.93 780.54 709.06 785.93 706.01 790.76
  Q 704.74 792.77 693.66 810.19
  A 0.92 0.91 39.1 0 0 693.78 811.32
  L 721.83 839.78
  A 3.30 3.22 -82.2 0 1 722.34 840.47
  C 727.86 850.58 714.96 856.42 708.13 849.53
  Q 700.90 842.23 694.55 835.14
  Q 688.28 828.13 684.86 824.74
  A 0.63 0.63 0.0 0 0 683.88 824.87
  L 679.12 833.12
  A 4.23 4.20 54.8 0 0 678.63 836.01
  Q 680.46 845.55 681.20 850.29
  Q 682.59 859.26 673.98 860.27
  C 666.32 861.18 665.46 855.26 664.30 848.54
  Q 662.08 835.67 655.42 796.18
  Q 654.18 788.85 655.00 786.95
  Q 656.87 782.60 662.72 782.17
  C 668.92 781.73 670.03 786.81 670.91 791.59
  Q 672.41 799.78 674.78 813.08
  Z"
/>
<path fill="#ffffff" d="
  M 747.71 810.80
  L 749.12 783.45
  A 0.34 0.34 0.0 0 1 749.75 783.28
  L 764.64 806.27
  A 0.34 0.34 0.0 0 1 764.45 806.78
  L 748.14 811.15
  A 0.34 0.34 0.0 0 1 747.71 810.80
  Z"
/>
<path fill="#000000" d="
  M 612.94 787.73
  C 636.02 786.54 648.59 804.69 649.67 825.82
  C 650.75 846.96 640.11 866.29 617.02 867.47
  C 593.94 868.66 581.37 850.51 580.29 829.38
  C 579.21 808.24 589.85 788.91 612.94 787.73
  Z
  M 613.17 802.39
  C 599.44 803.32 596.24 817.56 596.99 828.68
  C 597.73 839.79 602.82 853.48 616.54 852.56
  C 630.27 851.63 633.47 837.39 632.72 826.27
  C 631.98 815.16 626.89 801.47 613.17 802.39
  Z"
/>
<path fill="#000000" d="
  M 912.48 798.71
  L 914.31 791.12
  A 3.73 3.73 0.0 0 1 918.86 788.38
  L 918.97 788.41
  A 3.06 3.05 18.8 0 1 921.01 792.54
  C 919.66 795.78 916.72 804.04 912.79 799.87
  A 1.27 1.25 30.4 0 1 912.48 798.71
  Z"
/>
<path fill="#000000" d="
  M 553.88 821.62
  A 0.18 0.18 0.0 0 0 553.54 821.53
  Q 540.38 847.53 539.84 848.60
  C 537.50 853.30 535.61 855.18 530.02 854.84
  Q 526.32 854.61 524.37 850.88
  Q 518.71 840.05 510.85 822.39
  Q 510.64 821.91 510.37 821.58
  A 0.21 0.21 0.0 0 0 510.00 821.71
  Q 509.36 855.18 509.41 857.71
  Q 509.57 864.82 507.94 867.04
  C 504.83 871.27 496.36 871.01 493.80 865.84
  Q 492.94 864.09 493.09 859.02
  Q 493.25 853.72 494.74 801.72
  C 494.88 796.71 495.96 792.53 500.89 791.47
  Q 510.68 789.37 514.86 798.10
  Q 525.99 821.32 531.77 833.50
  A 0.33 0.33 0.0 0 0 532.37 833.48
  C 535.76 824.88 541.52 814.63 549.96 798.18
  Q 553.77 790.76 561.38 791.71
  C 566.80 792.38 569.70 795.46 569.66 801.02
  Q 569.59 810.67 569.39 856.79
  Q 569.35 865.36 568.08 867.44
  Q 565.34 871.95 558.30 870.27
  Q 553.20 869.05 553.22 862.99
  Q 553.27 843.10 553.88 821.62
  Z"
/>
<path fill="#000000" d="
  M 932.04 831.95
  L 943.74 825.23
  A 3.31 3.31 0.0 0 1 948.36 826.64
  L 948.46 826.85
  A 3.70 3.69 -28.7 0 1 947.01 831.80
  Q 937.31 837.26 933.56 839.52
  C 930.04 841.63 927.61 842.40 925.29 838.22
  Q 912.66 815.50 911.02 812.53
  C 908.96 808.83 910.22 807.62 913.62 805.72
  Q 918.01 803.26 927.10 797.80
  A 3.69 3.68 59.9 0 1 932.21 799.16
  L 932.32 799.34
  A 3.43 3.43 0.0 0 1 931.05 804.04
  L 919.87 810.44
  A 0.78 0.77 60.3 0 0 919.59 811.49
  L 923.09 817.54
  A 0.83 0.83 0.0 0 0 924.22 817.85
  L 933.26 812.63
  A 3.24 3.24 0.0 0 1 937.77 813.97
  L 937.95 814.32
  A 3.43 3.43 0.0 0 1 936.61 818.85
  L 927.57 824.06
  A 0.83 0.83 0.0 0 0 927.27 825.19
  L 931.01 831.67
  A 0.76 0.76 0.0 0 0 932.04 831.95
  Z"
/>
<path fill="#ffffff" d="
  M 613.17 802.39
  C 626.89 801.47 631.98 815.16 632.72 826.27
  C 633.47 837.39 630.27 851.63 616.54 852.56
  C 602.82 853.48 597.73 839.79 596.99 828.68
  C 596.24 817.56 599.44 803.32 613.17 802.39
  Z"
/>
<path fill="#000000" d="
  M 893.72 825.24
  L 897.66 833.03
  A 0.13 0.13 0.0 0 0 897.83 833.08
  L 907.98 827.94
  A 3.16 3.15 -24.3 0 1 912.34 829.58
  L 912.50 829.97
  A 3.60 3.59 65.6 0 1 910.79 834.53
  L 901.45 839.27
  A 0.61 0.60 63.4 0 0 901.18 840.09
  L 906.41 850.41
  A 3.93 3.92 63.1 0 1 904.69 855.68
  L 904.35 855.86
  A 3.79 3.79 0.0 0 1 899.26 854.19
  L 884.56 825.20
  A 3.23 3.23 0.0 0 1 884.87 821.79
  Q 885.47 821.01 888.40 819.41
  Q 896.43 815.04 901.97 812.10
  A 3.72 3.72 0.0 0 1 906.91 813.49
  L 906.93 813.53
  A 3.43 3.43 0.0 0 1 905.64 818.34
  L 893.88 824.70
  A 0.41 0.40 61.8 0 0 893.72 825.24
  Z"
/>
<path fill="#000000" d="
  M 876.83 859.05
  Q 871.58 861.46 871.11 861.69
  A 0.84 0.84 0.0 0 0 870.64 862.54
  L 871.30 868.78
  A 4.28 4.28 0.0 0 1 867.92 873.42
  L 867.59 873.49
  A 3.69 3.68 -7.6 0 1 863.24 870.17
  Q 861.84 853.05 860.43 837.13
  Q 860.02 832.48 863.83 830.74
  Q 867.65 828.98 870.90 832.33
  Q 882.05 843.78 894.12 856.01
  A 3.69 3.68 -41.7 0 1 893.79 861.47
  L 893.53 861.66
  A 4.28 4.28 0.0 0 1 887.80 861.21
  L 883.50 856.64
  A 0.84 0.84 0.0 0 0 882.55 856.44
  Q 882.07 856.65 876.83 859.05
  Z
  M 869.45 854.50
  A 0.32 0.32 0.0 0 0 869.90 854.76
  L 877.77 851.24
  A 0.32 0.32 0.0 0 0 877.87 850.73
  L 868.63 840.63
  A 0.32 0.32 0.0 0 0 868.07 840.87
  L 869.45 854.50
  Z"
/>
<path fill="#ffffff" d="
  M 869.45 854.50
  L 868.07 840.87
  A 0.32 0.32 0.0 0 1 868.63 840.63
  L 877.87 850.73
  A 0.32 0.32 0.0 0 1 877.77 851.24
  L 869.90 854.76
  A 0.32 0.32 0.0 0 1 869.45 854.50
  Z"
/>
<path fill="#000000" d="
  M 852.24 869.08
  C 854.89 863.04 861.49 867.70 858.89 873.05
  Q 855.64 879.75 848.05 882.06
  C 827.17 888.45 814.64 853.73 832.63 844.18
  C 837.16 841.78 842.85 841.03 847.48 843.33
  C 850.09 844.63 850.36 847.76 848.84 849.90
  A 2.72 2.72 0.0 0 1 846.07 850.99
  C 844.02 850.57 842.07 849.54 839.93 849.71
  C 829.23 850.57 831.46 862.61 834.93 868.81
  C 839.02 876.11 848.41 877.81 852.24 869.08
  Z"
/>
<path fill="#000000" d="
  M 799.07 891.44
  A 0.58 0.58 0.0 0 0 799.80 891.80
  L 812.52 887.49
  A 3.14 3.14 0.0 0 1 816.50 889.45
  L 816.67 889.96
  A 3.58 3.58 0.0 0 1 814.46 894.49
  Q 800.61 899.38 796.97 900.43
  Q 793.94 901.31 792.84 898.44
  Q 792.32 897.07 782.47 867.73
  A 3.99 3.98 -18.7 0 1 784.97 862.69
  L 785.61 862.48
  A 3.44 3.44 0.0 0 1 789.98 864.63
  L 799.07 891.44
  Z"
/>
<path fill="#000000" d="
  M 770.16 901.41
  L 783.09 897.49
  A 3.32 3.31 74.9 0 1 787.28 899.90
  L 787.33 900.13
  A 3.70 3.70 0.0 0 1 784.80 904.64
  Q 774.11 907.78 769.94 909.14
  C 766.02 910.41 763.48 910.61 762.16 906.01
  Q 754.95 880.99 754.02 877.72
  C 752.84 873.64 754.34 872.74 758.09 871.66
  Q 762.93 870.24 773.03 866.96
  A 3.70 3.69 72.9 0 1 777.71 869.44
  L 777.78 869.64
  A 3.44 3.44 0.0 0 1 775.48 873.94
  L 763.13 877.67
  A 0.78 0.77 73.3 0 0 762.62 878.63
  L 764.67 885.33
  A 0.83 0.83 0.0 0 0 765.70 885.88
  L 775.70 882.83
  A 3.25 3.25 0.0 0 1 779.80 885.15
  L 779.90 885.53
  A 3.44 3.44 0.0 0 1 777.57 889.65
  L 767.57 892.70
  A 0.84 0.83 -17.3 0 0 767.03 893.74
  L 769.22 900.90
  A 0.76 0.76 0.0 0 0 770.16 901.41
  Z"
/>
<path fill="#000000" d="
  M 718.39 886.05
  A 3.89 3.89 0.0 0 1 721.26 881.36
  L 730.99 879.00
  A 17.59 17.59 0.0 0 1 752.23 891.96
  L 753.15 895.77
  A 17.59 17.59 0.0 0 1 740.19 917.00
  L 730.45 919.36
  A 3.89 3.89 0.0 0 1 725.75 916.49
  L 718.39 886.05
  Z
  M 727.15 888.29
  L 732.73 910.50
  A 0.87 0.87 0.0 0 0 733.78 911.14
  L 737.63 910.17
  A 10.45 10.26 75.9 0 0 745.04 897.53
  L 744.13 893.91
  A 10.45 10.26 75.9 0 0 731.63 886.27
  L 727.78 887.24
  A 0.87 0.87 0.0 0 0 727.15 888.29
  Z"
/>
<path fill="#ffffff" d="
  M 727.15 888.29
  A 0.87 0.87 0.0 0 1 727.78 887.24
  L 731.63 886.27
  A 10.45 10.26 75.9 0 1 744.13 893.91
  L 745.04 897.53
  A 10.45 10.26 75.9 0 1 737.63 910.17
  L 733.78 911.14
  A 0.87 0.87 0.0 0 1 732.73 910.50
  L 727.15 888.29
  Z"
/>
<path fill="#000000" d="
  M 690.06 918.78
  Q 684.44 919.80 683.94 919.90
  A 0.84 0.83 -1.8 0 0 683.28 920.61
  L 682.38 926.75
  A 4.23 4.23 0.0 0 1 677.99 930.37
  L 677.67 930.36
  A 3.65 3.64 6.7 0 1 674.31 926.11
  Q 677.16 909.34 679.72 893.73
  Q 680.46 889.18 684.55 888.44
  Q 688.64 887.69 690.94 891.70
  Q 698.82 905.41 707.39 920.11
  A 3.65 3.64 -27.3 0 1 705.74 925.26
  L 705.44 925.38
  A 4.23 4.23 0.0 0 1 700.06 923.54
  L 697.06 918.10
  A 0.84 0.83 -18.8 0 0 696.19 917.68
  Q 695.68 917.76 690.06 918.78
  Z
  M 684.39 912.48
  A 0.32 0.32 0.0 0 0 684.76 912.84
  L 692.88 911.36
  A 0.32 0.32 0.0 0 0 693.10 910.89
  L 686.77 899.11
  A 0.32 0.32 0.0 0 0 686.17 899.22
  L 684.39 912.48
  Z"
/>
<path fill="#000000" d="
  M 662.76 903.02
  C 660.53 902.86 658.04 900.62 655.28 900.61
  C 652.68 900.60 649.43 901.52 648.92 904.45
  C 648.47 906.95 650.74 908.21 652.79 908.73
  C 656.22 909.61 661.51 909.88 664.56 911.61
  C 672.99 916.40 672.47 928.63 663.43 932.42
  Q 660.04 933.84 655.74 934.19
  C 651.48 934.53 644.07 932.92 643.11 927.96
  C 642.78 926.21 643.63 924.68 645.18 923.93
  C 647.02 923.03 648.64 924.32 650.53 925.37
  C 653.54 927.03 657.23 927.25 660.10 925.73
  Q 663.47 923.95 661.67 919.96
  Q 661.41 919.38 659.23 918.28
  Q 657.92 917.63 656.26 917.44
  C 650.41 916.77 643.21 915.10 641.45 908.73
  C 637.81 895.53 654.27 889.82 663.36 895.38
  C 665.88 896.92 667.41 901.33 663.80 902.85
  A 2.26 2.25 -54.2 0 1 662.76 903.02
  Z"
/>
<path fill="#000000" d="
  M 623.02 928.45
  Q 617.32 929.02 616.80 929.08
  A 0.84 0.84 0.0 0 0 616.09 929.73
  L 614.69 935.80
  A 4.25 4.25 0.0 0 1 610.01 939.06
  L 609.68 939.02
  A 3.66 3.65 11.4 0 1 606.67 934.50
  Q 610.89 917.97 614.71 902.56
  Q 615.82 898.07 619.97 897.66
  Q 624.12 897.25 626.09 901.44
  Q 632.86 915.79 640.24 931.18
  A 3.66 3.65 -22.7 0 1 638.17 936.20
  L 637.86 936.30
  A 4.25 4.25 0.0 0 1 632.63 934.02
  L 630.07 928.34
  A 0.84 0.84 0.0 0 0 629.24 927.85
  Q 628.72 927.89 623.02 928.45
  Z
  M 622.33 921.56
  Q 623.52 921.43 626.32 921.23
  A 0.49 0.49 0.0 0 0 626.73 920.54
  L 621.05 907.92
  A 0.18 0.10 75.4 0 0 620.95 907.81
  Q 620.91 907.80 620.86 907.81
  Q 620.82 907.81 620.78 907.83
  A 0.18 0.10 -87.6 0 0 620.71 907.96
  L 617.81 921.49
  A 0.49 0.49 0.0 0 0 618.35 922.08
  Q 621.13 921.68 622.33 921.56
  Z"
/>
<path fill="#ffffff" d="
  M 684.39 912.48
  L 686.17 899.22
  A 0.32 0.32 0.0 0 1 686.77 899.11
  L 693.10 910.89
  A 0.32 0.32 0.0 0 1 692.88 911.36
  L 684.76 912.84
  A 0.32 0.32 0.0 0 1 684.39 912.48
  Z"
/>
<path fill="#000000" d="
  M 580.29 920.97
  C 580.79 928.29 584.72 935.57 593.29 932.60
  A 4.65 4.59 14.6 0 0 594.80 931.73
  Q 595.65 930.99 597.84 928.90
  A 3.00 2.98 -50.9 0 1 601.46 928.52
  C 605.23 930.82 603.15 934.99 600.33 937.11
  Q 594.08 941.80 586.26 940.38
  C 576.77 938.67 572.47 930.41 571.86 921.55
  C 571.25 912.69 574.38 903.91 583.55 900.91
  Q 591.10 898.44 597.93 902.23
  C 601.02 903.95 603.65 907.79 600.23 910.59
  A 3.00 2.98 43.0 0 1 596.59 910.71
  Q 594.13 908.94 593.19 908.32
  A 4.65 4.59 -22.5 0 0 591.57 907.66
  C 582.68 905.90 579.78 913.64 580.29 920.97
  Z"
/>
<path fill="#000000" d="
  M 502.09 932.29
  A 0.58 0.57 -87.1 0 0 502.63 932.89
  L 515.94 933.60
  A 3.11 3.11 0.0 0 1 518.89 936.88
  L 518.86 937.41
  A 3.55 3.55 0.0 0 1 515.15 940.77
  Q 500.59 940.17 496.85 939.80
  Q 493.73 939.49 493.77 936.44
  Q 493.80 934.99 495.53 904.32
  A 3.96 3.95 3.1 0 1 499.70 900.60
  L 500.36 900.64
  A 3.42 3.42 0.0 0 1 503.60 904.23
  L 502.09 932.29
  Z"
/>
<path fill="#000000" d="
  M 538.73 932.35
  Q 533.00 932.33 532.49 932.34
  A 0.84 0.84 0.0 0 0 531.71 932.91
  L 529.70 938.80
  A 4.24 4.24 0.0 0 1 524.71 941.56
  L 524.39 941.49
  A 3.66 3.65 17.3 0 1 521.86 936.69
  Q 527.75 920.69 533.13 905.77
  Q 534.70 901.42 538.86 901.44
  Q 543.03 901.46 544.56 905.82
  Q 549.81 920.78 555.56 936.84
  A 3.66 3.65 -16.8 0 1 552.99 941.61
  L 552.67 941.68
  A 4.24 4.24 0.0 0 1 547.71 938.88
  L 545.75 932.97
  A 0.84 0.84 0.0 0 0 544.97 932.39
  Q 544.46 932.38 538.73 932.35
  Z
  M 534.26 925.23
  A 0.30 0.30 0.0 0 0 534.55 925.62
  L 542.99 925.62
  A 0.30 0.30 0.0 0 0 543.28 925.23
  L 539.06 912.30
  A 0.30 0.30 0.0 0 0 538.48 912.30
  L 534.26 925.23
  Z"
/>
<path fill="#ffffff" d="
  M 620.86 907.81
  Q 620.91 907.80 620.95 907.81
  A 0.18 0.10 75.4 0 1 621.05 907.92
  L 626.73 920.54
  A 0.49 0.49 0.0 0 1 626.32 921.23
  Q 623.52 921.43 622.33 921.56
  Q 621.13 921.68 618.35 922.08
  A 0.49 0.49 0.0 0 1 617.81 921.49
  L 620.71 907.96
  A 0.18 0.10 -87.6 0 1 620.78 907.83
  Q 620.82 907.81 620.86 907.81
  Z"
/>
<path fill="#ffffff" d="
  M 534.26 925.23
  L 538.48 912.30
  A 0.30 0.30 0.0 0 1 539.06 912.30
  L 543.28 925.23
  A 0.30 0.30 0.0 0 1 542.99 925.62
  L 534.55 925.62
  A 0.30 0.30 0.0 0 1 534.26 925.23
  Z"
/>
</svg>
